<?xml version="1.0" encoding="us-ascii" standalone="no"?><svg xmlns="http://www.w3.org/2000/svg" xmlns:xlink="http://www.w3.org/1999/xlink" contentStyleType="text/css" height="447px" preserveAspectRatio="none" style="width:462px;height:447px;background:#FFFFFF;" version="1.1" viewBox="0 0 462 447" width="462px" zoomAndPan="magnify"><defs/><g><text fill="#000000" font-family="sans-serif" font-size="14" font-weight="bold" lengthAdjust="spacing" textLength="197" x="131.5" y="28.5352">OID4VP Cross-Device Flow</text><rect fill="#FFFFFF" height="44.6211" style="stroke:#181818;stroke-width:1.0;" width="10" x="121.5" y="224.2188"/><rect fill="#FFFFFF" height="153.8633" style="stroke:#181818;stroke-width:1.0;" width="10" x="411.5" y="194.9082"/><line style="stroke:#181818;stroke-width:0.5;stroke-dasharray:5.0,5.0;" x1="40" x2="40" y1="118.9766" y2="366.7715"/><line style="stroke:#181818;stroke-width:0.5;stroke-dasharray:5.0,5.0;" x1="126" x2="126" y1="118.9766" y2="366.7715"/><line style="stroke:#181818;stroke-width:0.5;stroke-dasharray:5.0,5.0;" x1="416" x2="416" y1="118.9766" y2="366.7715"/><text fill="#000000" font-family="sans-serif" font-size="14" lengthAdjust="spacing" textLength="65" x="5" y="116.0234">End-User</text><ellipse cx="40.5" cy="50.9883" fill="#E2E2F0" rx="8" ry="8" style="stroke:#181818;stroke-width:0.5;"/><path d="M40.5,58.9883 L40.5,85.9883 M27.5,66.9883 L53.5,66.9883 M40.5,85.9883 L27.5,100.9883 M40.5,85.9883 L53.5,100.9883 " fill="none" style="stroke:#181818;stroke-width:0.5;"/><text fill="#000000" font-family="sans-serif" font-size="14" lengthAdjust="spacing" textLength="65" x="5" y="379.3066">End-User</text><ellipse cx="40.5" cy="390.7598" fill="#E2E2F0" rx="8" ry="8" style="stroke:#181818;stroke-width:0.5;"/><path d="M40.5,398.7598 L40.5,425.7598 M27.5,406.7598 L53.5,406.7598 M40.5,425.7598 L27.5,440.7598 M40.5,425.7598 L53.5,440.7598 " fill="none" style="stroke:#181818;stroke-width:0.5;"/><rect fill="#E2E2F0" height="46.9766" rx="2.5" ry="2.5" style="stroke:#181818;stroke-width:0.5;" width="81" x="86" y="71"/><text fill="#000000" font-family="sans-serif" font-size="14" lengthAdjust="spacing" textLength="50" x="101.5" y="91.5352">Verifier</text><text fill="#000000" font-family="sans-serif" font-size="14" lengthAdjust="spacing" textLength="67" x="93" y="108.0234">(device A)</text><rect fill="#E2E2F0" height="46.9766" rx="2.5" ry="2.5" style="stroke:#181818;stroke-width:0.5;" width="81" x="86" y="365.7715"/><text fill="#000000" font-family="sans-serif" font-size="14" lengthAdjust="spacing" textLength="50" x="101.5" y="386.3066">Verifier</text><text fill="#000000" font-family="sans-serif" font-size="14" lengthAdjust="spacing" textLength="67" x="93" y="402.7949">(device A)</text><rect fill="#E2E2F0" height="46.9766" rx="2.5" ry="2.5" style="stroke:#181818;stroke-width:0.5;" width="79" x="377" y="71"/><text fill="#000000" font-family="sans-serif" font-size="14" lengthAdjust="spacing" textLength="41" x="396" y="91.5352">Wallet</text><text fill="#000000" font-family="sans-serif" font-size="14" lengthAdjust="spacing" textLength="65" x="384" y="108.0234">(device B)</text><rect fill="#E2E2F0" height="46.9766" rx="2.5" ry="2.5" style="stroke:#181818;stroke-width:0.5;" width="79" x="377" y="365.7715"/><text fill="#000000" font-family="sans-serif" font-size="14" lengthAdjust="spacing" textLength="41" x="396" y="386.3066">Wallet</text><text fill="#000000" font-family="sans-serif" font-size="14" lengthAdjust="spacing" textLength="65" x="384" y="402.7949">(device B)</text><rect fill="#FFFFFF" height="44.6211" style="stroke:#181818;stroke-width:1.0;" width="10" x="121.5" y="224.2188"/><rect fill="#FFFFFF" height="153.8633" style="stroke:#181818;stroke-width:1.0;" width="10" x="411.5" y="194.9082"/><polygon fill="#181818" points="114.5,146.2871,124.5,150.2871,114.5,154.2871,118.5,150.2871" style="stroke:#181818;stroke-width:1.0;"/><line style="stroke:#181818;stroke-width:1.0;" x1="40.5" x2="120.5" y1="150.2871" y2="150.2871"/><text fill="#000000" font-family="sans-serif" font-size="13" lengthAdjust="spacing" textLength="55" x="47.5" y="145.5449">Interacts</text><polygon fill="#181818" points="399.5,190.9082,409.5,194.9082,399.5,198.9082,403.5,194.9082" style="stroke:#181818;stroke-width:1.0;"/><line style="stroke:#181818;stroke-width:1.0;" x1="126.5" x2="405.5" y1="194.9082" y2="194.9082"/><text fill="#000000" font-family="sans-serif" font-size="13" lengthAdjust="spacing" textLength="160" x="133.5" y="174.8555">(1) Authorization Request</text><text fill="#000000" font-family="sans-serif" font-size="13" lengthAdjust="spacing" textLength="83" x="133.5" y="190.166">(Request URI)</text><polygon fill="#181818" points="142.5,220.2188,132.5,224.2188,142.5,228.2188,138.5,224.2188" style="stroke:#181818;stroke-width:1.0;"/><line style="stroke:#181818;stroke-width:1.0;" x1="136.5" x2="410.5" y1="224.2188" y2="224.2188"/><text fill="#000000" font-family="sans-serif" font-size="13" lengthAdjust="spacing" textLength="193" x="148.5" y="219.4766">(2) Request the Request Object</text><polygon fill="#181818" points="399.5,264.8398,409.5,268.8398,399.5,272.8398,403.5,268.8398" style="stroke:#181818;stroke-width:1.0;"/><line style="stroke:#181818;stroke-width:1.0;stroke-dasharray:2.0,2.0;" x1="126.5" x2="405.5" y1="268.8398" y2="268.8398"/><text fill="#000000" font-family="sans-serif" font-size="13" lengthAdjust="spacing" textLength="240" x="133.5" y="248.7871">(2.5) Respond with the Request Object</text><text fill="#000000" font-family="sans-serif" font-size="13" lengthAdjust="spacing" textLength="83" x="133.5" y="264.0977">(DCQL query)</text><path d="M5,281.8398 L5,306.8398 L451,306.8398 L451,291.8398 L441,281.8398 L5,281.8398 " fill="#FEFFDD" style="stroke:#181818;stroke-width:0.5;"/><path d="M441,281.8398 L441,291.8398 L451,291.8398 L441,281.8398 " fill="#FEFFDD" style="stroke:#181818;stroke-width:0.5;"/><text fill="#000000" font-family="sans-serif" font-size="13" lengthAdjust="spacing" textLength="223" x="112" y="299.4082">End-User Authentication / Consent</text><polygon fill="#181818" points="137.5,344.7715,127.5,348.7715,137.5,352.7715,133.5,348.7715" style="stroke:#181818;stroke-width:1.0;"/><line style="stroke:#181818;stroke-width:1.0;stroke-dasharray:2.0,2.0;" x1="131.5" x2="415.5" y1="348.7715" y2="348.7715"/><text fill="#000000" font-family="sans-serif" font-size="13" lengthAdjust="spacing" textLength="261" x="143.5" y="328.7188">(3) Authorization Response as HTTP POST</text><text fill="#000000" font-family="sans-serif" font-size="13" lengthAdjust="spacing" textLength="194" x="143.5" y="344.0293">(VP Token with Presentation(s))</text><!--SRC=[RL9DJyCm3BtdLrWxjH85CU32OTBOG4n2QXdTk709hT42LJ8IhnFyUfocxIZivlZZ-RtdaA8A8LtCBzSPpAnnBfbZhGg4kyhiXP056GkZMrqcAuTs1D81FtmijjAIAjHMQeBH6grwKsXVT5G6W6dST7U5OVkph2gaG_DDQ0vf8TeLa4pwURY6XIQqpCW9qMUv8mnnFJgFORgZZR7gMv8o6fRukKFdzxGHh9QBsAjIjIJizxKGmtNHEEu0W3ROn-dhEnPq0EaL_c8re3K-lV98Rcjq2Nj5coDmJ74-Utm0pjclM9Hu15uRVfgQyGFsINSANj9Tg340DJiT73Y3cT6E4mUHVrHU_3VDCtNe3tAVvnbawLFE_FY7vEO3TP2GMVImpKZauW7brjOV]--></g></svg>