<?xml version="1.0" encoding="us-ascii" standalone="no"?><svg xmlns="http://www.w3.org/2000/svg" xmlns:xlink="http://www.w3.org/1999/xlink" contentStyleType="text/css" height="454px" preserveAspectRatio="none" style="width:733px;height:454px;background:#FFFFFF;" version="1.1" viewBox="0 0 733 454" width="733px" zoomAndPan="magnify"><defs/><g><text fill="#000000" font-family="sans-serif" font-size="14" font-weight="bold" lengthAdjust="spacing" textLength="258" x="236.75" y="28.5352">OID4VCI Pre-Authorized Code Flow</text><line style="stroke:#181818;stroke-width:0.5;stroke-dasharray:5.0,5.0;" x1="40" x2="40" y1="118.9766" y2="373.4609"/><line style="stroke:#181818;stroke-width:0.5;stroke-dasharray:5.0,5.0;" x1="119" x2="119" y1="118.9766" y2="373.4609"/><line style="stroke:#181818;stroke-width:0.5;stroke-dasharray:5.0,5.0;" x1="458.5" x2="458.5" y1="118.9766" y2="373.4609"/><line style="stroke:#181818;stroke-width:0.5;stroke-dasharray:5.0,5.0;" x1="662.5" x2="662.5" y1="118.9766" y2="373.4609"/><text fill="#000000" font-family="sans-serif" font-size="14" lengthAdjust="spacing" textLength="65" x="5" y="116.0234">End-User</text><ellipse cx="40.5" cy="50.9883" fill="#E2E2F0" rx="8" ry="8" style="stroke:#181818;stroke-width:0.5;"/><path d="M40.5,58.9883 L40.5,85.9883 M27.5,66.9883 L53.5,66.9883 M40.5,85.9883 L27.5,100.9883 M40.5,85.9883 L53.5,100.9883 " fill="none" style="stroke:#181818;stroke-width:0.5;"/><text fill="#000000" font-family="sans-serif" font-size="14" lengthAdjust="spacing" textLength="65" x="5" y="385.9961">End-User</text><ellipse cx="40.5" cy="397.4492" fill="#E2E2F0" rx="8" ry="8" style="stroke:#181818;stroke-width:0.5;"/><path d="M40.5,405.4492 L40.5,432.4492 M27.5,413.4492 L53.5,413.4492 M40.5,432.4492 L27.5,447.4492 M40.5,432.4492 L53.5,447.4492 " fill="none" style="stroke:#181818;stroke-width:0.5;"/><rect fill="#E2E2F0" height="30.4883" rx="2.5" ry="2.5" style="stroke:#181818;stroke-width:0.5;" width="55" x="92" y="87.4883"/><text fill="#000000" font-family="sans-serif" font-size="14" lengthAdjust="spacing" textLength="41" x="99" y="108.0234">Wallet</text><rect fill="#E2E2F0" height="30.4883" rx="2.5" ry="2.5" style="stroke:#181818;stroke-width:0.5;" width="55" x="92" y="372.4609"/><text fill="#000000" font-family="sans-serif" font-size="14" lengthAdjust="spacing" textLength="41" x="99" y="392.9961">Wallet</text><rect fill="#E2E2F0" height="30.4883" rx="2.5" ry="2.5" style="stroke:#181818;stroke-width:0.5;" width="156" x="380.5" y="87.4883"/><text fill="#000000" font-family="sans-serif" font-size="14" lengthAdjust="spacing" textLength="142" x="387.5" y="108.0234">Authorization Server</text><rect fill="#E2E2F0" height="30.4883" rx="2.5" ry="2.5" style="stroke:#181818;stroke-width:0.5;" width="156" x="380.5" y="372.4609"/><text fill="#000000" font-family="sans-serif" font-size="14" lengthAdjust="spacing" textLength="142" x="387.5" y="392.9961">Authorization Server</text><rect fill="#E2E2F0" height="30.4883" rx="2.5" ry="2.5" style="stroke:#181818;stroke-width:0.5;" width="130" x="597.5" y="87.4883"/><text fill="#000000" font-family="sans-serif" font-size="14" lengthAdjust="spacing" textLength="116" x="604.5" y="108.0234">Credential Issuer</text><rect fill="#E2E2F0" height="30.4883" rx="2.5" ry="2.5" style="stroke:#181818;stroke-width:0.5;" width="130" x="597.5" y="372.4609"/><text fill="#000000" font-family="sans-serif" font-size="14" lengthAdjust="spacing" textLength="116" x="604.5" y="392.9961">Credential Issuer</text><polygon fill="#181818" points="650.5,146.2871,660.5,150.2871,650.5,154.2871,654.5,150.2871" style="stroke:#181818;stroke-width:1.0;"/><line style="stroke:#181818;stroke-width:1.0;" x1="119.5" x2="656.5" y1="150.2871" y2="150.2871"/><text fill="#000000" font-family="sans-serif" font-size="13" lengthAdjust="spacing" textLength="519" x="126.5" y="145.5449">(1) End-User provides information required for the issuance of a certain Credential</text><polygon fill="#181818" points="130.5,175.5977,120.5,179.5977,130.5,183.5977,126.5,179.5977" style="stroke:#181818;stroke-width:1.0;"/><line style="stroke:#181818;stroke-width:1.0;" x1="124.5" x2="661.5" y1="179.5977" y2="179.5977"/><text fill="#000000" font-family="sans-serif" font-size="13" lengthAdjust="spacing" textLength="264" x="136.5" y="174.8555">(2) Credential Offer (Pre-Authorized Code)</text><polygon fill="#181818" points="650.5,204.9082,660.5,208.9082,650.5,212.9082,654.5,208.9082" style="stroke:#181818;stroke-width:1.0;"/><line style="stroke:#181818;stroke-width:1.0;" x1="119.5" x2="656.5" y1="208.9082" y2="208.9082"/><text fill="#000000" font-family="sans-serif" font-size="13" lengthAdjust="spacing" textLength="293" x="126.5" y="204.166">(3) Obtains Issuer's Credential Issuer metadata</text><polygon fill="#181818" points="107.5,234.2188,117.5,238.2188,107.5,242.2188,111.5,238.2188" style="stroke:#181818;stroke-width:1.0;"/><line style="stroke:#181818;stroke-width:1.0;" x1="40.5" x2="113.5" y1="238.2188" y2="238.2188"/><text fill="#000000" font-family="sans-serif" font-size="13" lengthAdjust="spacing" textLength="55" x="47.5" y="233.4766">interacts</text><polygon fill="#181818" points="446.5,263.5293,456.5,267.5293,446.5,271.5293,450.5,267.5293" style="stroke:#181818;stroke-width:1.0;"/><line style="stroke:#181818;stroke-width:1.0;" x1="119.5" x2="452.5" y1="267.5293" y2="267.5293"/><text fill="#000000" font-family="sans-serif" font-size="13" lengthAdjust="spacing" textLength="315" x="126.5" y="262.7871">(4) Token Request (Pre-Authorized Code, tx_code)</text><polygon fill="#181818" points="130.5,292.8398,120.5,296.8398,130.5,300.8398,126.5,296.8398" style="stroke:#181818;stroke-width:1.0;"/><line style="stroke:#181818;stroke-width:1.0;" x1="124.5" x2="457.5" y1="296.8398" y2="296.8398"/><text fill="#000000" font-family="sans-serif" font-size="13" lengthAdjust="spacing" textLength="200" x="136.5" y="292.0977">Token Response (access_token)</text><polygon fill="#181818" points="650.5,322.1504,660.5,326.1504,650.5,330.1504,654.5,326.1504" style="stroke:#181818;stroke-width:1.0;"/><line style="stroke:#181818;stroke-width:1.0;" x1="119.5" x2="656.5" y1="326.1504" y2="326.1504"/><text fill="#000000" font-family="sans-serif" font-size="13" lengthAdjust="spacing" textLength="292" x="126.5" y="321.4082">(5) Credential Request (access_token, proof(s))</text><polygon fill="#181818" points="130.5,351.4609,120.5,355.4609,130.5,359.4609,126.5,355.4609" style="stroke:#181818;stroke-width:1.0;"/><line style="stroke:#181818;stroke-width:1.0;" x1="124.5" x2="661.5" y1="355.4609" y2="355.4609"/><text fill="#000000" font-family="sans-serif" font-size="13" lengthAdjust="spacing" textLength="219" x="136.5" y="350.7188">Credential Response (Credential(s))</text><!--SRC=[ZL5DJy905BptLqous4tWeEB5WucfclI4yVD8rkrhs5Xswxu76d-zMw10eObSvxqtCsz6h5I4INutVijoF0OQtIvaveFzfGAPBmWFbVzE4ct41mpkNJ5wPGg3fDP1hB6rTeB1kwugaWEm9T9YlSCpXUNHNHQe82TMLyYP5yqyQSamkkbRk4Pwhj3wG1tyqXR4iAxqORxM2lIriF4I4OBC23RUQcS8leI6eI3QEkp8anwXbVx6InIzK7lxc9Hb54zxyb8dF72fCFbeBF06F6CSBM9EeWijEaQoZRrhoZgX49lXWzHwau-wOuKN_qaEJp4WOkbzO0ZvcPhr9xr4NGyj8TVUCI7LnX3pL1fOdTBcLIVOhRDzdc5JiozJLkh_fZfahQiTk2Bv0m00]--></g></svg>