<?xml version="1.0" encoding="us-ascii" standalone="no"?><svg xmlns="http://www.w3.org/2000/svg" xmlns:xlink="http://www.w3.org/1999/xlink" contentStyleType="text/css" height="1835px" preserveAspectRatio="none" style="width:1852px;height:1835px;background:#FFFFFF;" version="1.1" viewBox="0 0 1852 1835" width="1852px" zoomAndPan="magnify"><defs/><g><rect fill="#ADD8E6" height="1823.2988" style="stroke:#181818;stroke-width:0.5;" width="314" x="188" y="6"/><text fill="#000000" font-family="sans-serif" font-size="13" font-weight="bold" lengthAdjust="spacing" textLength="71" x="309.5" y="18.5684">Client Side</text><rect fill="#E0FFFF" height="1823.2988" style="stroke:#181818;stroke-width:0.5;" width="762.5" x="835.5" y="6"/><text fill="#000000" font-family="sans-serif" font-size="13" font-weight="bold" lengthAdjust="spacing" textLength="107" x="1163.25" y="18.5684">Service(RP) Side</text><line style="stroke:#181818;stroke-width:0.5;stroke-dasharray:5.0,5.0;" x1="23" x2="23" y1="81.4883" y2="1749.8105"/><line style="stroke:#181818;stroke-width:0.5;stroke-dasharray:5.0,5.0;" x1="219" x2="219" y1="81.4883" y2="1749.8105"/><line style="stroke:#181818;stroke-width:0.5;stroke-dasharray:5.0,5.0;" x1="465" x2="465" y1="81.4883" y2="1749.8105"/><line style="stroke:#181818;stroke-width:0.5;stroke-dasharray:5.0,5.0;" x1="701.5" x2="701.5" y1="81.4883" y2="1749.8105"/><line style="stroke:#181818;stroke-width:0.5;stroke-dasharray:5.0,5.0;" x1="925.5" x2="925.5" y1="81.4883" y2="1749.8105"/><line style="stroke:#181818;stroke-width:0.5;stroke-dasharray:5.0,5.0;" x1="1182" x2="1182" y1="81.4883" y2="1749.8105"/><line style="stroke:#181818;stroke-width:0.5;stroke-dasharray:5.0,5.0;" x1="1241" x2="1241" y1="81.4883" y2="1749.8105"/><line style="stroke:#181818;stroke-width:0.5;stroke-dasharray:5.0,5.0;" x1="1522" x2="1522" y1="81.4883" y2="1749.8105"/><text fill="#000000" font-family="sans-serif" font-size="14" lengthAdjust="spacing" textLength="31" x="5" y="78.5352">User</text><ellipse cx="23.5" cy="13.5" fill="#E2E2F0" rx="8" ry="8" style="stroke:#181818;stroke-width:0.5;"/><path d="M23.5,21.5 L23.5,48.5 M10.5,29.5 L36.5,29.5 M23.5,48.5 L10.5,63.5 M23.5,48.5 L36.5,63.5 " fill="none" style="stroke:#181818;stroke-width:0.5;"/><text fill="#000000" font-family="sans-serif" font-size="14" lengthAdjust="spacing" textLength="31" x="5" y="1762.3457">User</text><ellipse cx="23.5" cy="1773.7988" fill="#E2E2F0" rx="8" ry="8" style="stroke:#181818;stroke-width:0.5;"/><path d="M23.5,1781.7988 L23.5,1808.7988 M10.5,1789.7988 L36.5,1789.7988 M23.5,1808.7988 L10.5,1823.7988 M23.5,1808.7988 L36.5,1823.7988 " fill="none" style="stroke:#181818;stroke-width:0.5;"/><rect fill="#E2E2F0" height="30.4883" rx="2.5" ry="2.5" style="stroke:#181818;stroke-width:0.5;" width="55" x="192" y="50"/><text fill="#000000" font-family="sans-serif" font-size="14" lengthAdjust="spacing" textLength="41" x="199" y="70.5352">Wallet</text><rect fill="#E2E2F0" height="30.4883" rx="2.5" ry="2.5" style="stroke:#181818;stroke-width:0.5;" width="55" x="192" y="1748.8105"/><text fill="#000000" font-family="sans-serif" font-size="14" lengthAdjust="spacing" textLength="41" x="199" y="1769.3457">Wallet</text><rect fill="#E2E2F0" height="46.9766" rx="2.5" ry="2.5" style="stroke:#181818;stroke-width:0.5;" width="65" x="433" y="33.5117"/><text fill="#000000" font-family="sans-serif" font-size="14" lengthAdjust="spacing" textLength="31" x="450" y="54.0469">SIOP</text><text fill="#000000" font-family="sans-serif" font-size="14" lengthAdjust="spacing" textLength="51" x="440" y="70.5352">Module</text><rect fill="#E2E2F0" height="46.9766" rx="2.5" ry="2.5" style="stroke:#181818;stroke-width:0.5;" width="65" x="433" y="1748.8105"/><text fill="#000000" font-family="sans-serif" font-size="14" lengthAdjust="spacing" textLength="31" x="450" y="1769.3457">SIOP</text><text fill="#000000" font-family="sans-serif" font-size="14" lengthAdjust="spacing" textLength="51" x="440" y="1785.834">Module</text><rect fill="#E2E2F0" height="30.4883" rx="2.5" ry="2.5" style="stroke:#181818;stroke-width:0.5;" width="84" x="659.5" y="50"/><text fill="#000000" font-family="sans-serif" font-size="14" lengthAdjust="spacing" textLength="70" x="666.5" y="70.5352">Static Web</text><rect fill="#E2E2F0" height="30.4883" rx="2.5" ry="2.5" style="stroke:#181818;stroke-width:0.5;" width="84" x="659.5" y="1748.8105"/><text fill="#000000" font-family="sans-serif" font-size="14" lengthAdjust="spacing" textLength="70" x="666.5" y="1769.3457">Static Web</text><rect fill="#E2E2F0" height="30.4883" rx="2.5" ry="2.5" style="stroke:#181818;stroke-width:0.5;" width="172" x="839.5" y="50"/><text fill="#000000" font-family="sans-serif" font-size="14" lengthAdjust="spacing" textLength="158" x="846.5" y="70.5352">Verifier Backend Server</text><rect fill="#E2E2F0" height="30.4883" rx="2.5" ry="2.5" style="stroke:#181818;stroke-width:0.5;" width="172" x="839.5" y="1748.8105"/><text fill="#000000" font-family="sans-serif" font-size="14" lengthAdjust="spacing" textLength="158" x="846.5" y="1769.3457">Verifier Backend Server</text><rect fill="#E2E2F0" height="46.9766" rx="2.5" ry="2.5" style="stroke:#181818;stroke-width:0.5;" width="65" x="1150" y="33.5117"/><text fill="#000000" font-family="sans-serif" font-size="14" lengthAdjust="spacing" textLength="31" x="1167" y="54.0469">SIOP</text><text fill="#000000" font-family="sans-serif" font-size="14" lengthAdjust="spacing" textLength="51" x="1157" y="70.5352">Module</text><rect fill="#E2E2F0" height="46.9766" rx="2.5" ry="2.5" style="stroke:#181818;stroke-width:0.5;" width="65" x="1150" y="1748.8105"/><text fill="#000000" font-family="sans-serif" font-size="14" lengthAdjust="spacing" textLength="31" x="1167" y="1769.3457">SIOP</text><text fill="#000000" font-family="sans-serif" font-size="14" lengthAdjust="spacing" textLength="51" x="1157" y="1785.834">Module</text><rect fill="#E2E2F0" height="30.4883" rx="2.5" ry="2.5" style="stroke:#181818;stroke-width:0.5;" width="32" x="1225" y="50"/><text fill="#000000" font-family="sans-serif" font-size="14" lengthAdjust="spacing" textLength="18" x="1232" y="70.5352">DB</text><rect fill="#E2E2F0" height="30.4883" rx="2.5" ry="2.5" style="stroke:#181818;stroke-width:0.5;" width="32" x="1225" y="1748.8105"/><text fill="#000000" font-family="sans-serif" font-size="14" lengthAdjust="spacing" textLength="18" x="1232" y="1769.3457">DB</text><rect fill="#E2E2F0" height="30.4883" rx="2.5" ry="2.5" style="stroke:#181818;stroke-width:0.5;" width="143" x="1451" y="50"/><text fill="#000000" font-family="sans-serif" font-size="14" lengthAdjust="spacing" textLength="129" x="1458" y="70.5352">Metadata Endpoint</text><rect fill="#E2E2F0" height="30.4883" rx="2.5" ry="2.5" style="stroke:#181818;stroke-width:0.5;" width="143" x="1451" y="1748.8105"/><text fill="#000000" font-family="sans-serif" font-size="14" lengthAdjust="spacing" textLength="129" x="1458" y="1769.3457">Metadata Endpoint</text><rect fill="#EEEEEE" height="3" style="stroke:#EEEEEE;stroke-width:1.0;" width="1845" x="0" y="112.1436"/><line style="stroke:#000000;stroke-width:1.0;" x1="0" x2="1845" y1="112.1436" y2="112.1436"/><line style="stroke:#000000;stroke-width:1.0;" x1="0" x2="1845" y1="115.1436" y2="115.1436"/><rect fill="#EEEEEE" height="23.3105" style="stroke:#000000;stroke-width:2.0;" width="102" x="871.5" y="101.4883"/><text fill="#000000" font-family="sans-serif" font-size="13" font-weight="bold" lengthAdjust="spacing" textLength="84" x="877.5" y="118.0566">RP &#52769; &#52488;&#44592; &#52376;&#47532;</text><polygon fill="#181818" points="689.5,152.1094,699.5,156.1094,689.5,160.1094,693.5,156.1094" style="stroke:#181818;stroke-width:1.0;"/><line style="stroke:#181818;stroke-width:1.0;" x1="23.5" x2="695.5" y1="156.1094" y2="156.1094"/><text fill="#000000" font-family="sans-serif" font-size="13" font-weight="bold" lengthAdjust="spacing" textLength="9" x="30.5" y="151.3672">1</text><text fill="#000000" font-family="sans-serif" font-size="13" lengthAdjust="spacing" textLength="106" x="43.5" y="151.3672">1. Access RP site</text><path d="M706,169.1094 L706,194.1094 L934,194.1094 L934,179.1094 L924,169.1094 L706,169.1094 " fill="#FEFFDD" style="stroke:#181818;stroke-width:0.5;"/><path d="M924,169.1094 L924,179.1094 L934,179.1094 L924,169.1094 " fill="#FEFFDD" style="stroke:#181818;stroke-width:0.5;"/><text fill="#000000" font-family="sans-serif" font-size="13" lengthAdjust="spacing" textLength="207" x="712" y="186.6777">&#49324;&#50857;&#51088;&#44032; &#50937; &#54168;&#51060;&#51648;&#50640;&#49436; &#47196;&#44536;&#51064; &#48260;&#53948; &#53364;&#47533;</text><polygon fill="#181818" points="913.5,216.7305,923.5,220.7305,913.5,224.7305,917.5,220.7305" style="stroke:#181818;stroke-width:1.0;"/><line style="stroke:#181818;stroke-width:1.0;" x1="701.5" x2="919.5" y1="220.7305" y2="220.7305"/><text fill="#000000" font-family="sans-serif" font-size="13" font-weight="bold" lengthAdjust="spacing" textLength="9" x="708.5" y="215.9883">2</text><text fill="#000000" font-family="sans-serif" font-size="13" lengthAdjust="spacing" textLength="114" x="721.5" y="215.9883">2. Sign-in request</text><path d="M930,233.7305 L930,273.7305 L1094,273.7305 L1094,243.7305 L1084,233.7305 L930,233.7305 " fill="#FEFFDD" style="stroke:#181818;stroke-width:0.5;"/><path d="M1084,233.7305 L1084,243.7305 L1094,243.7305 L1084,233.7305 " fill="#FEFFDD" style="stroke:#181818;stroke-width:0.5;"/><text fill="#000000" font-family="sans-serif" font-size="13" lengthAdjust="spacing" textLength="122" x="936" y="251.2988">&#47196;&#44536;&#51064; &#50836;&#52397;&#51012; &#52376;&#47532;&#54616;&#44256;,</text><text fill="#000000" font-family="sans-serif" font-size="13" lengthAdjust="spacing" textLength="143" x="936" y="266.6094">SIOP &#50836;&#52397; &#51456;&#48708; &#45800;&#44228;&#47196; &#51652;&#51077;</text><polygon fill="#181818" points="1170.5,311.9727,1180.5,315.9727,1170.5,319.9727,1174.5,315.9727" style="stroke:#181818;stroke-width:1.0;"/><line style="stroke:#181818;stroke-width:1.0;" x1="925.5" x2="1176.5" y1="315.9727" y2="315.9727"/><text fill="#000000" font-family="sans-serif" font-size="13" font-weight="bold" lengthAdjust="spacing" textLength="9" x="932.5" y="303.5752">3</text><text fill="#000000" font-family="sans-serif" font-size="13" lengthAdjust="spacing" textLength="220" x="945.5" y="295.9199">3. Create SIOP Request URI &amp; token</text><text fill="#000000" font-family="sans-serif" font-size="13" lengthAdjust="spacing" textLength="179" x="945.5" y="311.2305">(include `registration` field)</text><path d="M1187,328.9727 L1187,399.9727 L1416,399.9727 L1416,338.9727 L1406,328.9727 L1187,328.9727 " fill="#FEFFDD" style="stroke:#181818;stroke-width:0.5;"/><path d="M1406,328.9727 L1406,338.9727 L1416,338.9727 L1406,328.9727 " fill="#FEFFDD" style="stroke:#181818;stroke-width:0.5;"/><text fill="#000000" font-family="sans-serif" font-size="13" lengthAdjust="spacing" textLength="179" x="1193" y="346.541">SIOP Request &#49373;&#49457; &#49884; &#45796;&#51020; &#54252;&#54632;:</text><text fill="#000000" font-family="sans-serif" font-size="13" lengthAdjust="spacing" textLength="174" x="1193" y="361.8516">- client_id (RP callback URI)</text><text fill="#000000" font-family="sans-serif" font-size="13" lengthAdjust="spacing" textLength="208" x="1193" y="377.1621">- registration (RP&#51032; &#53364;&#46972;&#51060;&#50616;&#53944; &#51221;&#48372;)</text><text fill="#000000" font-family="sans-serif" font-size="13" lengthAdjust="spacing" textLength="104" x="1193" y="392.4727">- nonce, state &#46321;</text><polygon fill="#181818" points="936.5,422.5254,926.5,426.5254,936.5,430.5254,932.5,426.5254" style="stroke:#181818;stroke-width:1.0;"/><line style="stroke:#181818;stroke-width:1.0;" x1="930.5" x2="1181.5" y1="426.5254" y2="426.5254"/><text fill="#000000" font-family="sans-serif" font-size="13" font-weight="bold" lengthAdjust="spacing" textLength="9" x="942.5" y="421.7832">4</text><text fill="#000000" font-family="sans-serif" font-size="13" lengthAdjust="spacing" textLength="152" x="955.5" y="421.7832">Return SIOP Request URI</text><polygon fill="#181818" points="1229,451.8359,1239,455.8359,1229,459.8359,1233,455.8359" style="stroke:#181818;stroke-width:1.0;"/><line style="stroke:#181818;stroke-width:1.0;" x1="925.5" x2="1235" y1="455.8359" y2="455.8359"/><text fill="#000000" font-family="sans-serif" font-size="13" font-weight="bold" lengthAdjust="spacing" textLength="9" x="932.5" y="451.0938">5</text><text fill="#000000" font-family="sans-serif" font-size="13" lengthAdjust="spacing" textLength="240" x="945.5" y="451.0938">4. Store session ID, SIOP token, nonce</text><path d="M1246,468.8359 L1246,508.8359 L1411,508.8359 L1411,478.8359 L1401,468.8359 L1246,468.8359 " fill="#FEFFDD" style="stroke:#181818;stroke-width:0.5;"/><path d="M1401,468.8359 L1401,478.8359 L1411,478.8359 L1401,468.8359 " fill="#FEFFDD" style="stroke:#181818;stroke-width:0.5;"/><text fill="#000000" font-family="sans-serif" font-size="13" lengthAdjust="spacing" textLength="144" x="1252" y="486.4043">&#45208;&#51473;&#50640; &#51025;&#45813;&#51012; &#44160;&#51613;&#54616;&#44592; &#50948;&#54620;</text><text fill="#000000" font-family="sans-serif" font-size="13" lengthAdjust="spacing" textLength="131" x="1252" y="501.7148">nonce &#48143; &#49345;&#53468; &#51221;&#48372; &#51200;&#51109;</text><polygon fill="#181818" points="712.5,531.7676,702.5,535.7676,712.5,539.7676,708.5,535.7676" style="stroke:#181818;stroke-width:1.0;"/><line style="stroke:#181818;stroke-width:1.0;" x1="706.5" x2="924.5" y1="535.7676" y2="535.7676"/><text fill="#000000" font-family="sans-serif" font-size="13" font-weight="bold" lengthAdjust="spacing" textLength="9" x="718.5" y="531.0254">6</text><text fill="#000000" font-family="sans-serif" font-size="13" lengthAdjust="spacing" textLength="187" x="731.5" y="531.0254">5. Provide QR code (siop://...)</text><path d="M706,548.7676 L706,588.7676 L934,588.7676 L934,558.7676 L924,548.7676 L706,548.7676 " fill="#FEFFDD" style="stroke:#181818;stroke-width:0.5;"/><path d="M924,548.7676 L924,558.7676 L934,558.7676 L924,548.7676 " fill="#FEFFDD" style="stroke:#181818;stroke-width:0.5;"/><text fill="#000000" font-family="sans-serif" font-size="13" lengthAdjust="spacing" textLength="207" x="712" y="566.3359">&#49324;&#50857;&#51088;&#44032; &#47784;&#48148;&#51068; &#44592;&#44592;&#47196; &#49828;&#52884;&#54624; &#49688; &#51080;&#46020;&#47197;</text><text fill="#000000" font-family="sans-serif" font-size="13" lengthAdjust="spacing" textLength="203" x="712" y="581.6465">SIOP Request URI&#47484; QR &#53076;&#46300;&#47196; &#51228;&#44277;</text><rect fill="#EEEEEE" height="3" style="stroke:#EEEEEE;stroke-width:1.0;" width="1845" x="0" y="615.0439"/><line style="stroke:#000000;stroke-width:1.0;" x1="0" x2="1845" y1="615.0439" y2="615.0439"/><line style="stroke:#000000;stroke-width:1.0;" x1="0" x2="1845" y1="618.0439" y2="618.0439"/><rect fill="#EEEEEE" height="23.3105" style="stroke:#000000;stroke-width:2.0;" width="118" x="863.5" y="604.3887"/><text fill="#000000" font-family="sans-serif" font-size="13" font-weight="bold" lengthAdjust="spacing" textLength="100" x="869.5" y="620.957">&#49324;&#50857;&#51088; &#52769; &#51064;&#51613; &#50836;&#52397;</text><polygon fill="#181818" points="689.5,655.0098,699.5,659.0098,689.5,663.0098,693.5,659.0098" style="stroke:#181818;stroke-width:1.0;"/><line style="stroke:#181818;stroke-width:1.0;" x1="23.5" x2="695.5" y1="659.0098" y2="659.0098"/><text fill="#000000" font-family="sans-serif" font-size="13" font-weight="bold" lengthAdjust="spacing" textLength="9" x="30.5" y="654.2676">7</text><text fill="#000000" font-family="sans-serif" font-size="13" lengthAdjust="spacing" textLength="101" x="43.5" y="654.2676">6. Scan QR code</text><path d="M28,672.0098 L28,697.0098 L241,697.0098 L241,682.0098 L231,672.0098 L28,672.0098 " fill="#FEFFDD" style="stroke:#181818;stroke-width:0.5;"/><path d="M231,672.0098 L231,682.0098 L241,682.0098 L231,672.0098 " fill="#FEFFDD" style="stroke:#181818;stroke-width:0.5;"/><text fill="#000000" font-family="sans-serif" font-size="13" lengthAdjust="spacing" textLength="192" x="34" y="689.5781">&#49324;&#50857;&#51088;&#44032; &#47784;&#48148;&#51068; &#44592;&#44592;&#47196; QR &#53076;&#46300; &#49828;&#52884;</text><polygon fill="#181818" points="207.5,719.6309,217.5,723.6309,207.5,727.6309,211.5,723.6309" style="stroke:#181818;stroke-width:1.0;"/><line style="stroke:#181818;stroke-width:1.0;" x1="23.5" x2="213.5" y1="723.6309" y2="723.6309"/><text fill="#000000" font-family="sans-serif" font-size="13" font-weight="bold" lengthAdjust="spacing" textLength="9" x="30.5" y="718.8887">8</text><text fill="#000000" font-family="sans-serif" font-size="13" lengthAdjust="spacing" textLength="159" x="43.5" y="718.8887">7. POST SIOP Request URI</text><path d="M224,736.6309 L224,761.6309 L442,761.6309 L442,746.6309 L432,736.6309 L224,736.6309 " fill="#FEFFDD" style="stroke:#181818;stroke-width:0.5;"/><path d="M432,736.6309 L432,746.6309 L442,746.6309 L432,736.6309 " fill="#FEFFDD" style="stroke:#181818;stroke-width:0.5;"/><text fill="#000000" font-family="sans-serif" font-size="13" lengthAdjust="spacing" textLength="197" x="230" y="754.1992">SIOP &#53364;&#46972;&#51060;&#50616;&#53944;&#44032; &#48177;&#50644;&#46300;&#50640; URI &#51204;&#45804;</text><polygon fill="#181818" points="913.5,784.252,923.5,788.252,913.5,792.252,917.5,788.252" style="stroke:#181818;stroke-width:1.0;"/><line style="stroke:#181818;stroke-width:1.0;" x1="219.5" x2="919.5" y1="788.252" y2="788.252"/><text fill="#000000" font-family="sans-serif" font-size="13" font-weight="bold" lengthAdjust="spacing" textLength="9" x="226.5" y="783.5098">9</text><text fill="#000000" font-family="sans-serif" font-size="13" lengthAdjust="spacing" textLength="166" x="239.5" y="783.5098">8. GET SIOP Request token</text><path d="M930,801.252 L930,826.252 L1119,826.252 L1119,811.252 L1109,801.252 L930,801.252 " fill="#FEFFDD" style="stroke:#181818;stroke-width:0.5;"/><path d="M1109,801.252 L1109,811.252 L1119,811.252 L1109,801.252 " fill="#FEFFDD" style="stroke:#181818;stroke-width:0.5;"/><text fill="#000000" font-family="sans-serif" font-size="13" lengthAdjust="spacing" textLength="168" x="936" y="818.8203">&#50836;&#52397; URI&#47484; &#53685;&#54644; SIOP &#53664;&#53360; &#50836;&#52397;</text><polygon fill="#181818" points="1229,848.873,1239,852.873,1229,856.873,1233,852.873" style="stroke:#181818;stroke-width:1.0;"/><line style="stroke:#181818;stroke-width:1.0;" x1="925.5" x2="1235" y1="852.873" y2="852.873"/><text fill="#000000" font-family="sans-serif" font-size="13" font-weight="bold" lengthAdjust="spacing" textLength="18" x="932.5" y="848.1309">10</text><text fill="#000000" font-family="sans-serif" font-size="13" lengthAdjust="spacing" textLength="138" x="954.5" y="848.1309">9. Retrieve SIOP token</text><path d="M1246,865.873 L1246,890.873 L1404,890.873 L1404,875.873 L1394,865.873 L1246,865.873 " fill="#FEFFDD" style="stroke:#181818;stroke-width:0.5;"/><path d="M1394,865.873 L1394,875.873 L1404,875.873 L1394,865.873 " fill="#FEFFDD" style="stroke:#181818;stroke-width:0.5;"/><text fill="#000000" font-family="sans-serif" font-size="13" lengthAdjust="spacing" textLength="137" x="1252" y="883.4414">&#48120;&#47532; &#51200;&#51109;&#46108; &#50836;&#52397; &#53664;&#53360; &#48152;&#54872;</text><polygon fill="#181818" points="230.5,913.4941,220.5,917.4941,230.5,921.4941,226.5,917.4941" style="stroke:#181818;stroke-width:1.0;"/><line style="stroke:#181818;stroke-width:1.0;" x1="224.5" x2="924.5" y1="917.4941" y2="917.4941"/><text fill="#000000" font-family="sans-serif" font-size="13" font-weight="bold" lengthAdjust="spacing" textLength="18" x="236.5" y="912.752">11</text><text fill="#000000" font-family="sans-serif" font-size="13" lengthAdjust="spacing" textLength="100" x="258.5" y="912.752">Response token</text><rect fill="#EEEEEE" height="3" style="stroke:#EEEEEE;stroke-width:1.0;" width="1845" x="0" y="946.1494"/><line style="stroke:#000000;stroke-width:1.0;" x1="0" x2="1845" y1="946.1494" y2="946.1494"/><line style="stroke:#000000;stroke-width:1.0;" x1="0" x2="1845" y1="949.1494" y2="949.1494"/><rect fill="#EEEEEE" height="23.3105" style="stroke:#000000;stroke-width:2.0;" width="169" x="838" y="935.4941"/><text fill="#000000" font-family="sans-serif" font-size="13" font-weight="bold" lengthAdjust="spacing" textLength="151" x="844" y="952.0625">RP Metadata &#51312;&#54924; &#48143; &#44160;&#51613;</text><polygon fill="#181818" points="453.5,986.1152,463.5,990.1152,453.5,994.1152,457.5,990.1152" style="stroke:#181818;stroke-width:1.0;"/><line style="stroke:#181818;stroke-width:1.0;" x1="219.5" x2="459.5" y1="990.1152" y2="990.1152"/><text fill="#000000" font-family="sans-serif" font-size="13" font-weight="bold" lengthAdjust="spacing" textLength="18" x="226.5" y="985.373">12</text><text fill="#000000" font-family="sans-serif" font-size="13" lengthAdjust="spacing" textLength="200" x="248.5" y="985.373">10. Validate SIOP Request token</text><path d="M470,1003.1152 L470,1058.1152 L640,1058.1152 L640,1013.1152 L630,1003.1152 L470,1003.1152 " fill="#FEFFDD" style="stroke:#181818;stroke-width:0.5;"/><path d="M630,1003.1152 L630,1013.1152 L640,1013.1152 L630,1003.1152 " fill="#FEFFDD" style="stroke:#181818;stroke-width:0.5;"/><text fill="#000000" font-family="sans-serif" font-size="13" lengthAdjust="spacing" textLength="149" x="476" y="1020.6836">SIOP Request &#50976;&#54952;&#49457; &#44160;&#51613;:</text><text fill="#000000" font-family="sans-serif" font-size="13" lengthAdjust="spacing" textLength="144" x="476" y="1035.9941">- client_id &#49888;&#47280; &#50668;&#48512; &#54869;&#51064;</text><text fill="#000000" font-family="sans-serif" font-size="13" lengthAdjust="spacing" textLength="136" x="476" y="1051.3047">- scope, nonce &#54869;&#51064; &#46321;</text><polygon fill="#181818" points="1510.5,1081.3574,1520.5,1085.3574,1510.5,1089.3574,1514.5,1085.3574" style="stroke:#181818;stroke-width:1.0;"/><line style="stroke:#181818;stroke-width:1.0;" x1="465.5" x2="1516.5" y1="1085.3574" y2="1085.3574"/><text fill="#000000" font-family="sans-serif" font-size="13" font-weight="bold" lengthAdjust="spacing" textLength="18" x="472.5" y="1080.6152">13</text><text fill="#000000" font-family="sans-serif" font-size="13" lengthAdjust="spacing" textLength="266" x="494.5" y="1080.6152">10a. Fetch RP Metadata (using `client_id`)</text><path d="M1527,1098.3574 L1527,1153.3574 L1840,1153.3574 L1840,1108.3574 L1830,1098.3574 L1527,1098.3574 " fill="#FEFFDD" style="stroke:#181818;stroke-width:0.5;"/><path d="M1830,1098.3574 L1830,1108.3574 L1840,1108.3574 L1830,1098.3574 " fill="#FEFFDD" style="stroke:#181818;stroke-width:0.5;"/><text fill="#000000" font-family="sans-serif" font-size="13" lengthAdjust="spacing" textLength="134" x="1533" y="1115.9258">client_id&#44032; URL&#51064; &#44221;&#50864;:</text><text fill="#000000" font-family="sans-serif" font-size="13" lengthAdjust="spacing" textLength="234" x="1533" y="1131.2363">/.well-known/openid-federation &#46608;&#45716;</text><text fill="#000000" font-family="sans-serif" font-size="13" lengthAdjust="spacing" textLength="292" x="1533" y="1146.5469">/.well-known/openid-configuration &#46321;&#51004;&#47196; &#51312;&#54924;</text><polygon fill="#181818" points="1510.5,1176.5996,1520.5,1180.5996,1510.5,1184.5996,1514.5,1180.5996" style="stroke:#181818;stroke-width:1.0;"/><line style="stroke:#181818;stroke-width:1.0;" x1="1182.5" x2="1516.5" y1="1180.5996" y2="1180.5996"/><text fill="#000000" font-family="sans-serif" font-size="13" font-weight="bold" lengthAdjust="spacing" textLength="18" x="1189.5" y="1175.8574">14</text><text fill="#000000" font-family="sans-serif" font-size="13" lengthAdjust="spacing" textLength="294" x="1211.5" y="1175.8574">10b. Optionally resolve `registration` override</text><path d="M1527,1193.5996 L1527,1233.5996 L1742,1233.5996 L1742,1203.5996 L1732,1193.5996 L1527,1193.5996 " fill="#FEFFDD" style="stroke:#181818;stroke-width:0.5;"/><path d="M1732,1193.5996 L1732,1203.5996 L1742,1203.5996 L1732,1193.5996 " fill="#FEFFDD" style="stroke:#181818;stroke-width:0.5;"/><text fill="#000000" font-family="sans-serif" font-size="13" lengthAdjust="spacing" textLength="177" x="1533" y="1211.168">registration &#54596;&#46300; &#50864;&#49440; &#49324;&#50857;&#54616;&#46104;,</text><text fill="#000000" font-family="sans-serif" font-size="13" lengthAdjust="spacing" textLength="194" x="1533" y="1226.4785">&#54596;&#50836; &#49884; Metadata&#47196; &#48372;&#50756;&#54616;&#44144;&#45208; &#45824;&#52404;</text><line style="stroke:#181818;stroke-width:1.0;" x1="465.5" x2="507.5" y1="1260.5313" y2="1260.5313"/><line style="stroke:#181818;stroke-width:1.0;" x1="507.5" x2="507.5" y1="1260.5313" y2="1273.5313"/><line style="stroke:#181818;stroke-width:1.0;" x1="466.5" x2="507.5" y1="1273.5313" y2="1273.5313"/><polygon fill="#181818" points="476.5,1269.5313,466.5,1273.5313,476.5,1277.5313,472.5,1273.5313" style="stroke:#181818;stroke-width:1.0;"/><text fill="#000000" font-family="sans-serif" font-size="13" font-weight="bold" lengthAdjust="spacing" textLength="18" x="472.5" y="1255.7891">15</text><text fill="#000000" font-family="sans-serif" font-size="13" lengthAdjust="spacing" textLength="200" x="494.5" y="1255.7891">11. Create SIOP Response token</text><path d="M470,1286.5313 L470,1341.5313 L670,1341.5313 L670,1296.5313 L660,1286.5313 L470,1286.5313 " fill="#FEFFDD" style="stroke:#181818;stroke-width:0.5;"/><path d="M660,1286.5313 L660,1296.5313 L670,1296.5313 L660,1286.5313 " fill="#FEFFDD" style="stroke:#181818;stroke-width:0.5;"/><text fill="#000000" font-family="sans-serif" font-size="13" lengthAdjust="spacing" textLength="150" x="476" y="1304.0996">ID Token &#54805;&#53468;&#51032; &#51025;&#45813; &#49373;&#49457;:</text><text fill="#000000" font-family="sans-serif" font-size="13" lengthAdjust="spacing" textLength="179" x="476" y="1319.4102">- sub, iss, aud, nonce &#46321; &#54252;&#54632;</text><text fill="#000000" font-family="sans-serif" font-size="13" lengthAdjust="spacing" textLength="129" x="476" y="1334.7207">- &#49436;&#47749; &#54252;&#54632; (&#50696;: ES256)</text><polygon fill="#181818" points="230.5,1364.7734,220.5,1368.7734,230.5,1372.7734,226.5,1368.7734" style="stroke:#181818;stroke-width:1.0;"/><line style="stroke:#181818;stroke-width:1.0;" x1="224.5" x2="464.5" y1="1368.7734" y2="1368.7734"/><text fill="#000000" font-family="sans-serif" font-size="13" font-weight="bold" lengthAdjust="spacing" textLength="18" x="236.5" y="1364.0313">16</text><text fill="#000000" font-family="sans-serif" font-size="13" lengthAdjust="spacing" textLength="142" x="258.5" y="1364.0313">Return response token</text><polygon fill="#181818" points="913.5,1394.084,923.5,1398.084,913.5,1402.084,917.5,1398.084" style="stroke:#181818;stroke-width:1.0;"/><line style="stroke:#181818;stroke-width:1.0;" x1="219.5" x2="919.5" y1="1398.084" y2="1398.084"/><text fill="#000000" font-family="sans-serif" font-size="13" font-weight="bold" lengthAdjust="spacing" textLength="18" x="226.5" y="1393.3418">17</text><text fill="#000000" font-family="sans-serif" font-size="13" lengthAdjust="spacing" textLength="292" x="248.5" y="1393.3418">12. POST SIOP Response token to client_id URI</text><path d="M930,1411.084 L930,1436.084 L1114,1436.084 L1114,1421.084 L1104,1411.084 L930,1411.084 " fill="#FEFFDD" style="stroke:#181818;stroke-width:0.5;"/><path d="M1104,1411.084 L1104,1421.084 L1114,1421.084 L1104,1411.084 " fill="#FEFFDD" style="stroke:#181818;stroke-width:0.5;"/><text fill="#000000" font-family="sans-serif" font-size="13" lengthAdjust="spacing" textLength="163" x="936" y="1428.6523">RP&#44032; &#51025;&#45813;&#51012; &#49688;&#49888;&#54616;&#50668; &#44160;&#51613; &#51456;&#48708;</text><rect fill="#EEEEEE" height="3" style="stroke:#EEEEEE;stroke-width:1.0;" width="1845" x="0" y="1462.0498"/><line style="stroke:#000000;stroke-width:1.0;" x1="0" x2="1845" y1="1462.0498" y2="1462.0498"/><line style="stroke:#000000;stroke-width:1.0;" x1="0" x2="1845" y1="1465.0498" y2="1465.0498"/><rect fill="#EEEEEE" height="23.3105" style="stroke:#000000;stroke-width:2.0;" width="143" x="851" y="1451.3945"/><text fill="#000000" font-family="sans-serif" font-size="13" font-weight="bold" lengthAdjust="spacing" textLength="125" x="857" y="1467.9629">RP &#52769; &#51025;&#45813; &#44160;&#51613; &#48143; &#50756;&#47308;</text><polygon fill="#181818" points="1229,1502.0156,1239,1506.0156,1229,1510.0156,1233,1506.0156" style="stroke:#181818;stroke-width:1.0;"/><line style="stroke:#181818;stroke-width:1.0;" x1="925.5" x2="1235" y1="1506.0156" y2="1506.0156"/><text fill="#000000" font-family="sans-serif" font-size="13" font-weight="bold" lengthAdjust="spacing" textLength="18" x="932.5" y="1501.2734">18</text><text fill="#000000" font-family="sans-serif" font-size="13" lengthAdjust="spacing" textLength="116" x="954.5" y="1501.2734">13. Retrieve nonce</text><path d="M1246,1519.0156 L1246,1559.0156 L1419,1559.0156 L1419,1529.0156 L1409,1519.0156 L1246,1519.0156 " fill="#FEFFDD" style="stroke:#181818;stroke-width:0.5;"/><path d="M1409,1519.0156 L1409,1529.0156 L1419,1529.0156 L1409,1519.0156 " fill="#FEFFDD" style="stroke:#181818;stroke-width:0.5;"/><text fill="#000000" font-family="sans-serif" font-size="13" lengthAdjust="spacing" textLength="149" x="1252" y="1536.584">&#51060;&#51204;&#50640; &#51200;&#51109;&#54620; nonce &#48520;&#47084;&#50740;</text><text fill="#000000" font-family="sans-serif" font-size="13" lengthAdjust="spacing" textLength="152" x="1252" y="1551.8945">- &#51116;&#49324;&#50857;/&#50948;&#51312; &#50668;&#48512; &#54869;&#51064; &#47785;&#51201;</text><polygon fill="#181818" points="1170.5,1581.9473,1180.5,1585.9473,1170.5,1589.9473,1174.5,1585.9473" style="stroke:#181818;stroke-width:1.0;"/><line style="stroke:#181818;stroke-width:1.0;" x1="925.5" x2="1176.5" y1="1585.9473" y2="1585.9473"/><text fill="#000000" font-family="sans-serif" font-size="13" font-weight="bold" lengthAdjust="spacing" textLength="18" x="932.5" y="1581.2051">19</text><text fill="#000000" font-family="sans-serif" font-size="13" lengthAdjust="spacing" textLength="210" x="954.5" y="1581.2051">14. Validate SIOP Response token</text><path d="M1187,1598.9473 L1187,1653.9473 L1450,1653.9473 L1450,1608.9473 L1440,1598.9473 L1187,1598.9473 " fill="#FEFFDD" style="stroke:#181818;stroke-width:0.5;"/><path d="M1440,1598.9473 L1440,1608.9473 L1450,1608.9473 L1440,1598.9473 " fill="#FEFFDD" style="stroke:#181818;stroke-width:0.5;"/><text fill="#000000" font-family="sans-serif" font-size="13" lengthAdjust="spacing" textLength="86" x="1193" y="1616.5156">- &#51025;&#45813; &#49436;&#47749; &#44160;&#51613;</text><text fill="#000000" font-family="sans-serif" font-size="13" lengthAdjust="spacing" textLength="148" x="1193" y="1631.8262">- nonce, aud, iss &#46321; &#54869;&#51064;</text><text fill="#000000" font-family="sans-serif" font-size="13" lengthAdjust="spacing" textLength="242" x="1193" y="1647.1367">- subject binding &#48143; presentation (&#49440;&#53469;)</text><polygon fill="#181818" points="712.5,1677.1895,702.5,1681.1895,712.5,1685.1895,708.5,1681.1895" style="stroke:#181818;stroke-width:1.0;"/><line style="stroke:#181818;stroke-width:1.0;" x1="706.5" x2="924.5" y1="1681.1895" y2="1681.1895"/><text fill="#000000" font-family="sans-serif" font-size="13" font-weight="bold" lengthAdjust="spacing" textLength="18" x="718.5" y="1676.4473">20</text><text fill="#000000" font-family="sans-serif" font-size="13" lengthAdjust="spacing" textLength="132" x="740.5" y="1676.4473">15. Sign-in response</text><path d="M706,1694.1895 L706,1734.1895 L916,1734.1895 L916,1704.1895 L906,1694.1895 L706,1694.1895 " fill="#FEFFDD" style="stroke:#181818;stroke-width:0.5;"/><path d="M906,1694.1895 L906,1704.1895 L916,1704.1895 L906,1694.1895 " fill="#FEFFDD" style="stroke:#181818;stroke-width:0.5;"/><text fill="#000000" font-family="sans-serif" font-size="13" lengthAdjust="spacing" textLength="189" x="712" y="1711.7578">&#49324;&#50857;&#51088; &#51064;&#51613; &#50756;&#47308; &#54980; &#47196;&#44536;&#51064; &#49464;&#49496; &#48156;&#44553;</text><text fill="#000000" font-family="sans-serif" font-size="13" lengthAdjust="spacing" textLength="148" x="712" y="1727.0684">&#46608;&#45716; &#53664;&#53360; &#51200;&#51109; &#48143; &#47532;&#45796;&#51060;&#47113;&#49496;</text><!--SRC=[ZLPjJzjM5FwUNt74f0aaC4lVjY4nQPHkGce52ttvKcauzeLwpUpCTkZwBHHJKK0hLSbgQCBIZRQqebg0j4id-eToh__3phtNSModwK284FlOvpdFUSvphbfoBRFqSvxO6LLpBHkkEVXltleL1YuM36AwC6leP00-ksmit78d2YMI0IYgjcjeHb75smCtr4A1k0EWEkBPMM8luXjIGRDJqpCtpIkMNYgGRYXUp11J1qoNIOQxAdw16oGlWkLN_2Q1yHI6HWPpCqC9T1VlgcOwyNLY6_C6iM52rMxpN1AVU6rkvfHWCP13JOLDJeGt9oVIjwuGLzLLLuLBfbwq3DCD8_drg6By6H_7Yy1Qpu0rLzkj1h0ZdxuuWF7nJ8Op12FVT8k7CSWgyAsc4OU_2np39HdJSWdOl7gmvcD40R1x1spd5TlTR3VAm9w-X-0tdzMQx6MPFTbaNXNeishxdnQhjO0UUS7Q2GHBJVhYZS37Nvl9T5CZZWvR2EECWhmlc2E62JRvfKGSDuKZncmt2zlPOaTlMCqBgmmgVlkuFemndDtmDh2zCdtl0LtVRnzx-32mbnxRNOcXYe18KFpPCJYhm4MRg0X2NCX9M70jDmMVWsjXws-QWuQf5KewWJcRB1YEQsDrbZa7g8-2FjHRWknvudrikSQyGs3hID_w7gjjGF0G2zaVmy0HqCJ4_6ZeWDe43GSZZwhZ88R4_NXQ7i9glY2zTi8RytihM4EMwXLwt9JnfcLgP1WSbzT57nycIU2uadt94RTacpqCf1YRdC3GSzX277S23gg9mvcQ79OF2hA6PUuUJeJKwJsVxJr25G6hFQBhRtbBsqTbzgB6MyfLNFM2IXKZnKk0DXuYSKl1SZMi3Z_ARFTvdvx61NzUWHdRMiGXXnzoe5duEOXmYsEZeugY39rM_lJrFcriiTe983py5RfQssF_RWMLEh1L7zZkAds8UgkbEuxyqUSdF3lxi4KVLyMZzMhx-6qCFivnb4-ESws5T7GqtM-SBs0JDDNib9QgHZZnAGg9e8KbnN1radQD6RD-YPnEprxjbKbl-cYAHMnAgW9Fuv0zuRcv6lYmiRf7rmzI41Bpse7nbGBVNqgX4DhhxoKXdM5BWljlWqepX7Q_7Ymrme2-NY6K_xN2vyGso2A92RwFqlzkSJkMSgMRrGw2C1rj-C6stqqNpvQWF4USecKw9CmbRJzQ4knP8zZP46CYnoWIJEfrqkgoNoXmNIqOUe_RVQoIQD6cdQnQ3tRskPd9d6a7O-jr-YSo-kI0lYj3i5r1IOiGHxEA9FI7y7hAcoAiWdHUfa2jAl0TSRLRYTe7IuvXBi1Sb7YkruZ5reGkDYwyQxdBF77xw0FRQN3ieyeTKYYCt3QjE-Oe8ZGDVMIUw2HqM-flqhMjFd6QPSuR2wLEwED3LZqHSouQqyTrexho2amN-PFeztVHunshiDYpOopiestef5znYTKGL3mnpZiDvjL30q1hfPi-tvPu5sKeTb27HWuMVPLjUzo13nleq40tokoesQSjSJbbqwipeTM-QfgQXAiy0WA_WjRETvbS1-6Ib89oIlbXC1nd6DIItb4DCXpkJH63Xn7wUYMy0eFCNns3IxDdpbyO-XJwrDApax3xsaxsJDB-ua_XtzW4z5fYp8foC-9O5Uq_t24uCSW-3andYkLH9hacEiSzoLGOA1RajaV_sX2J_n7JofwDkTOdLZCtvxedLhFmB5p37SxVhT8_3fZVb9Jl7aXPZUAkHfadvnpNp2jMN_g_CrVsNAyHVK8xqObg91AARBna8NxY4Lf1rKYbnBodbF-9Q2xa3LFdji69AsBdiMFXeGe79bYk3PtYQ94z7p_5IjodEKz4krqsB7ZgnS-uNekjuEmrgktM0xv0XEr4wqdqHA36jI8Ea4rQVu1FTF7-1m00]--></g></svg>