<?xml version="1.0" encoding="us-ascii" standalone="no"?><svg xmlns="http://www.w3.org/2000/svg" xmlns:xlink="http://www.w3.org/1999/xlink" contentStyleType="text/css" height="426px" preserveAspectRatio="none" style="width:627px;height:426px;background:#FFFFFF;" version="1.1" viewBox="0 0 627 426" width="627px" zoomAndPan="magnify"><defs/><g><line style="stroke:#181818;stroke-width:0.5;stroke-dasharray:5.0,5.0;" x1="23" x2="23" y1="81.4883" y2="345.6621"/><line style="stroke:#181818;stroke-width:0.5;stroke-dasharray:5.0,5.0;" x1="177.5" x2="177.5" y1="81.4883" y2="345.6621"/><line style="stroke:#181818;stroke-width:0.5;stroke-dasharray:5.0,5.0;" x1="383.5" x2="383.5" y1="81.4883" y2="345.6621"/><line style="stroke:#181818;stroke-width:0.5;stroke-dasharray:5.0,5.0;" x1="571.5" x2="571.5" y1="81.4883" y2="345.6621"/><text fill="#000000" font-family="sans-serif" font-size="14" lengthAdjust="spacing" textLength="31" x="5" y="78.5352">User</text><ellipse cx="23.5" cy="13.5" fill="#E2E2F0" rx="8" ry="8" style="stroke:#181818;stroke-width:0.5;"/><path d="M23.5,21.5 L23.5,48.5 M10.5,29.5 L36.5,29.5 M23.5,48.5 L10.5,63.5 M23.5,48.5 L36.5,63.5 " fill="none" style="stroke:#181818;stroke-width:0.5;"/><text fill="#000000" font-family="sans-serif" font-size="14" lengthAdjust="spacing" textLength="31" x="5" y="358.1973">User</text><ellipse cx="23.5" cy="369.6504" fill="#E2E2F0" rx="8" ry="8" style="stroke:#181818;stroke-width:0.5;"/><path d="M23.5,377.6504 L23.5,404.6504 M10.5,385.6504 L36.5,385.6504 M23.5,404.6504 L10.5,419.6504 M23.5,404.6504 L36.5,419.6504 " fill="none" style="stroke:#181818;stroke-width:0.5;"/><rect fill="#E2E2F0" height="30.4883" rx="2.5" ry="2.5" style="stroke:#181818;stroke-width:0.5;" width="100" x="127.5" y="50"/><text fill="#000000" font-family="sans-serif" font-size="14" lengthAdjust="spacing" textLength="86" x="134.5" y="70.5352">Wallet (SIOP)</text><rect fill="#E2E2F0" height="30.4883" rx="2.5" ry="2.5" style="stroke:#181818;stroke-width:0.5;" width="100" x="127.5" y="344.6621"/><text fill="#000000" font-family="sans-serif" font-size="14" lengthAdjust="spacing" textLength="86" x="134.5" y="365.1973">Wallet (SIOP)</text><rect fill="#E2E2F0" height="30.4883" rx="2.5" ry="2.5" style="stroke:#181818;stroke-width:0.5;" width="64" x="351.5" y="50"/><text fill="#000000" font-family="sans-serif" font-size="14" lengthAdjust="spacing" textLength="50" x="358.5" y="70.5352">Verifier</text><rect fill="#E2E2F0" height="30.4883" rx="2.5" ry="2.5" style="stroke:#181818;stroke-width:0.5;" width="64" x="351.5" y="344.6621"/><text fill="#000000" font-family="sans-serif" font-size="14" lengthAdjust="spacing" textLength="50" x="358.5" y="365.1973">Verifier</text><rect fill="#E2E2F0" height="30.4883" rx="2.5" ry="2.5" style="stroke:#181818;stroke-width:0.5;" width="100" x="521.5" y="50"/><text fill="#000000" font-family="sans-serif" font-size="14" lengthAdjust="spacing" textLength="86" x="528.5" y="70.5352">DID Resolver</text><rect fill="#E2E2F0" height="30.4883" rx="2.5" ry="2.5" style="stroke:#181818;stroke-width:0.5;" width="100" x="521.5" y="344.6621"/><text fill="#000000" font-family="sans-serif" font-size="14" lengthAdjust="spacing" textLength="86" x="528.5" y="365.1973">DID Resolver</text><polygon fill="#181818" points="165.5,108.7988,175.5,112.7988,165.5,116.7988,169.5,112.7988" style="stroke:#181818;stroke-width:1.0;"/><line style="stroke:#181818;stroke-width:1.0;" x1="23.5" x2="171.5" y1="112.7988" y2="112.7988"/><text fill="#000000" font-family="sans-serif" font-size="13" lengthAdjust="spacing" textLength="130" x="30.5" y="108.0566">Presentation &#50836;&#52397; &#49688;&#46973;</text><line style="stroke:#181818;stroke-width:1.0;" x1="177.5" x2="219.5" y1="142.1094" y2="142.1094"/><line style="stroke:#181818;stroke-width:1.0;" x1="219.5" x2="219.5" y1="142.1094" y2="155.1094"/><line style="stroke:#181818;stroke-width:1.0;" x1="178.5" x2="219.5" y1="155.1094" y2="155.1094"/><polygon fill="#181818" points="188.5,151.1094,178.5,155.1094,188.5,159.1094,184.5,155.1094" style="stroke:#181818;stroke-width:1.0;"/><text fill="#000000" font-family="sans-serif" font-size="13" lengthAdjust="spacing" textLength="192" x="184.5" y="137.3672">SIOP ID Token &#49373;&#49457; (JWT + DID)</text><polygon fill="#181818" points="371.5,180.4199,381.5,184.4199,371.5,188.4199,375.5,184.4199" style="stroke:#181818;stroke-width:1.0;"/><line style="stroke:#181818;stroke-width:1.0;" x1="177.5" x2="377.5" y1="184.4199" y2="184.4199"/><text fill="#000000" font-family="sans-serif" font-size="13" lengthAdjust="spacing" textLength="116" x="184.5" y="179.6777">ID Token + VP &#51204;&#45804;</text><polygon fill="#181818" points="559.5,209.7305,569.5,213.7305,559.5,217.7305,563.5,213.7305" style="stroke:#181818;stroke-width:1.0;"/><line style="stroke:#181818;stroke-width:1.0;" x1="383.5" x2="565.5" y1="213.7305" y2="213.7305"/><text fill="#000000" font-family="sans-serif" font-size="13" lengthAdjust="spacing" textLength="133" x="390.5" y="208.9883">DID &#47928;&#49436; &#50836;&#52397; (resolve)</text><polygon fill="#181818" points="394.5,239.041,384.5,243.041,394.5,247.041,390.5,243.041" style="stroke:#181818;stroke-width:1.0;"/><line style="stroke:#181818;stroke-width:1.0;stroke-dasharray:2.0,2.0;" x1="388.5" x2="570.5" y1="243.041" y2="243.041"/><text fill="#000000" font-family="sans-serif" font-size="13" lengthAdjust="spacing" textLength="90" x="400.5" y="238.2988">Public Key &#48152;&#54872;</text><line style="stroke:#181818;stroke-width:1.0;" x1="383.5" x2="425.5" y1="272.3516" y2="272.3516"/><line style="stroke:#181818;stroke-width:1.0;" x1="425.5" x2="425.5" y1="272.3516" y2="285.3516"/><line style="stroke:#181818;stroke-width:1.0;" x1="384.5" x2="425.5" y1="285.3516" y2="285.3516"/><polygon fill="#181818" points="394.5,281.3516,384.5,285.3516,394.5,289.3516,390.5,285.3516" style="stroke:#181818;stroke-width:1.0;"/><text fill="#000000" font-family="sans-serif" font-size="13" lengthAdjust="spacing" textLength="75" x="390.5" y="267.6094">JWT &#49436;&#47749; &#44160;&#51613;</text><line style="stroke:#181818;stroke-width:1.0;" x1="383.5" x2="425.5" y1="314.6621" y2="314.6621"/><line style="stroke:#181818;stroke-width:1.0;" x1="425.5" x2="425.5" y1="314.6621" y2="327.6621"/><line style="stroke:#181818;stroke-width:1.0;" x1="384.5" x2="425.5" y1="327.6621" y2="327.6621"/><polygon fill="#181818" points="394.5,323.6621,384.5,327.6621,394.5,331.6621,390.5,327.6621" style="stroke:#181818;stroke-width:1.0;"/><text fill="#000000" font-family="sans-serif" font-size="13" lengthAdjust="spacing" textLength="174" x="390.5" y="309.9199">Claim &#44160;&#51613; (aud, exp, sub &#46321;)</text><!--SRC=[TO-nJiCm54LtVyLLfqHjVw032rqA0n6KTdQ3aIn24jaEWWs9824nmX0GaPWOK95efoxy47R_eNQRLWaIYuVtpZs-ZuOg4JYLJ92K2iL3dj9OeJMcKSGKl9F1KU2tG2KsamOrOeAVyx_H_g2FOoQJw8g9TT8E275VeBjNQT1389XaiQAA9p7CwxEPVy4y5Bhy8HLJfrqFMF4mkM0MlojDFeDtC1wYxVn-BRDjPLExG1kZ0EOzruzJijjRrdNjhLyzNPZyRLl44vi3VE9stQOro2OH3t78Rg2_Y-LBqL3MG5VFIlNdFNxdj-QZ_0_SZoY_h1XuD3lhW5sd7SXi0lqqyrS0]--></g></svg>