<?xml version="1.0" encoding="us-ascii" standalone="no"?><svg xmlns="http://www.w3.org/2000/svg" xmlns:xlink="http://www.w3.org/1999/xlink" contentStyleType="text/css" height="1801px" preserveAspectRatio="none" style="width:1745px;height:1801px;background:#FFFFFF;" version="1.1" viewBox="0 0 1745 1801" width="1745px" zoomAndPan="magnify"><defs/><g><line style="stroke:#181818;stroke-width:0.5;stroke-dasharray:5.0,5.0;" x1="23" x2="23" y1="81.4883" y2="1720.5"/><line style="stroke:#181818;stroke-width:0.5;stroke-dasharray:5.0,5.0;" x1="166.5" x2="166.5" y1="81.4883" y2="1720.5"/><line style="stroke:#181818;stroke-width:0.5;stroke-dasharray:5.0,5.0;" x1="390" x2="390" y1="81.4883" y2="1720.5"/><line style="stroke:#181818;stroke-width:0.5;stroke-dasharray:5.0,5.0;" x1="647" x2="647" y1="81.4883" y2="1720.5"/><line style="stroke:#181818;stroke-width:0.5;stroke-dasharray:5.0,5.0;" x1="744" x2="744" y1="81.4883" y2="1720.5"/><line style="stroke:#181818;stroke-width:0.5;stroke-dasharray:5.0,5.0;" x1="857" x2="857" y1="81.4883" y2="1720.5"/><line style="stroke:#181818;stroke-width:0.5;stroke-dasharray:5.0,5.0;" x1="1103" x2="1103" y1="81.4883" y2="1720.5"/><line style="stroke:#181818;stroke-width:0.5;stroke-dasharray:5.0,5.0;" x1="1415.5" x2="1415.5" y1="81.4883" y2="1720.5"/><text fill="#000000" font-family="sans-serif" font-size="14" lengthAdjust="spacing" textLength="31" x="5" y="78.5352">User</text><ellipse cx="23.5" cy="13.5" fill="#E2E2F0" rx="8" ry="8" style="stroke:#181818;stroke-width:0.5;"/><path d="M23.5,21.5 L23.5,48.5 M10.5,29.5 L36.5,29.5 M23.5,48.5 L10.5,63.5 M23.5,48.5 L36.5,63.5 " fill="none" style="stroke:#181818;stroke-width:0.5;"/><text fill="#000000" font-family="sans-serif" font-size="14" lengthAdjust="spacing" textLength="31" x="5" y="1733.0352">User</text><ellipse cx="23.5" cy="1744.4883" fill="#E2E2F0" rx="8" ry="8" style="stroke:#181818;stroke-width:0.5;"/><path d="M23.5,1752.4883 L23.5,1779.4883 M10.5,1760.4883 L36.5,1760.4883 M23.5,1779.4883 L10.5,1794.4883 M23.5,1779.4883 L36.5,1794.4883 " fill="none" style="stroke:#181818;stroke-width:0.5;"/><rect fill="#E2E2F0" height="30.4883" rx="2.5" ry="2.5" style="stroke:#181818;stroke-width:0.5;" width="84" x="124.5" y="50"/><text fill="#000000" font-family="sans-serif" font-size="14" lengthAdjust="spacing" textLength="70" x="131.5" y="70.5352">Static Web</text><rect fill="#E2E2F0" height="30.4883" rx="2.5" ry="2.5" style="stroke:#181818;stroke-width:0.5;" width="84" x="124.5" y="1719.5"/><text fill="#000000" font-family="sans-serif" font-size="14" lengthAdjust="spacing" textLength="70" x="131.5" y="1740.0352">Static Web</text><rect fill="#E2E2F0" height="30.4883" rx="2.5" ry="2.5" style="stroke:#181818;stroke-width:0.5;" width="139" x="321" y="50"/><text fill="#000000" font-family="sans-serif" font-size="14" lengthAdjust="spacing" textLength="125" x="328" y="70.5352">RP Backend Server</text><rect fill="#E2E2F0" height="30.4883" rx="2.5" ry="2.5" style="stroke:#181818;stroke-width:0.5;" width="139" x="321" y="1719.5"/><text fill="#000000" font-family="sans-serif" font-size="14" lengthAdjust="spacing" textLength="125" x="328" y="1740.0352">RP Backend Server</text><rect fill="#E2E2F0" height="30.4883" rx="2.5" ry="2.5" style="stroke:#181818;stroke-width:0.5;" width="121" x="587" y="50"/><text fill="#000000" font-family="sans-serif" font-size="14" lengthAdjust="spacing" textLength="107" x="594" y="70.5352">RP SIOP Module</text><rect fill="#E2E2F0" height="30.4883" rx="2.5" ry="2.5" style="stroke:#181818;stroke-width:0.5;" width="121" x="587" y="1719.5"/><text fill="#000000" font-family="sans-serif" font-size="14" lengthAdjust="spacing" textLength="107" x="594" y="1740.0352">RP SIOP Module</text><rect fill="#E2E2F0" height="30.4883" rx="2.5" ry="2.5" style="stroke:#181818;stroke-width:0.5;" width="53" x="718" y="50"/><text fill="#000000" font-family="sans-serif" font-size="14" lengthAdjust="spacing" textLength="39" x="725" y="70.5352">RP DB</text><rect fill="#E2E2F0" height="30.4883" rx="2.5" ry="2.5" style="stroke:#181818;stroke-width:0.5;" width="53" x="718" y="1719.5"/><text fill="#000000" font-family="sans-serif" font-size="14" lengthAdjust="spacing" textLength="39" x="725" y="1740.0352">RP DB</text><rect fill="#E2E2F0" height="30.4883" rx="2.5" ry="2.5" style="stroke:#181818;stroke-width:0.5;" width="153" x="781" y="50"/><text fill="#000000" font-family="sans-serif" font-size="14" lengthAdjust="spacing" textLength="139" x="788" y="70.5352">User Backend Server</text><rect fill="#E2E2F0" height="30.4883" rx="2.5" ry="2.5" style="stroke:#181818;stroke-width:0.5;" width="153" x="781" y="1719.5"/><text fill="#000000" font-family="sans-serif" font-size="14" lengthAdjust="spacing" textLength="139" x="788" y="1740.0352">User Backend Server</text><rect fill="#E2E2F0" height="30.4883" rx="2.5" ry="2.5" style="stroke:#181818;stroke-width:0.5;" width="135" x="1036" y="50"/><text fill="#000000" font-family="sans-serif" font-size="14" lengthAdjust="spacing" textLength="121" x="1043" y="70.5352">User SIOP Module</text><rect fill="#E2E2F0" height="30.4883" rx="2.5" ry="2.5" style="stroke:#181818;stroke-width:0.5;" width="135" x="1036" y="1719.5"/><text fill="#000000" font-family="sans-serif" font-size="14" lengthAdjust="spacing" textLength="121" x="1043" y="1740.0352">User SIOP Module</text><rect fill="#E2E2F0" height="30.4883" rx="2.5" ry="2.5" style="stroke:#181818;stroke-width:0.5;" width="164" x="1333.5" y="50"/><text fill="#000000" font-family="sans-serif" font-size="14" lengthAdjust="spacing" textLength="150" x="1340.5" y="70.5352">RP Metadata Endpoint</text><rect fill="#E2E2F0" height="30.4883" rx="2.5" ry="2.5" style="stroke:#181818;stroke-width:0.5;" width="164" x="1333.5" y="1719.5"/><text fill="#000000" font-family="sans-serif" font-size="14" lengthAdjust="spacing" textLength="150" x="1340.5" y="1740.0352">RP Metadata Endpoint</text><rect fill="#EEEEEE" height="3" style="stroke:#EEEEEE;stroke-width:1.0;" width="1738" x="0" y="112.1436"/><line style="stroke:#000000;stroke-width:1.0;" x1="0" x2="1738" y1="112.1436" y2="112.1436"/><line style="stroke:#000000;stroke-width:1.0;" x1="0" x2="1738" y1="115.1436" y2="115.1436"/><rect fill="#EEEEEE" height="23.3105" style="stroke:#000000;stroke-width:2.0;" width="102" x="818" y="101.4883"/><text fill="#000000" font-family="sans-serif" font-size="13" font-weight="bold" lengthAdjust="spacing" textLength="84" x="824" y="118.0566">RP &#52769; &#52488;&#44592; &#52376;&#47532;</text><polygon fill="#181818" points="154.5,152.1094,164.5,156.1094,154.5,160.1094,158.5,156.1094" style="stroke:#181818;stroke-width:1.0;"/><line style="stroke:#181818;stroke-width:1.0;" x1="23.5" x2="160.5" y1="156.1094" y2="156.1094"/><text fill="#000000" font-family="sans-serif" font-size="13" font-weight="bold" lengthAdjust="spacing" textLength="9" x="30.5" y="151.3672">1</text><text fill="#000000" font-family="sans-serif" font-size="13" lengthAdjust="spacing" textLength="106" x="43.5" y="151.3672">1. Access RP site</text><path d="M171,169.1094 L171,194.1094 L399,194.1094 L399,179.1094 L389,169.1094 L171,169.1094 " fill="#FEFFDD" style="stroke:#181818;stroke-width:0.5;"/><path d="M389,169.1094 L389,179.1094 L399,179.1094 L389,169.1094 " fill="#FEFFDD" style="stroke:#181818;stroke-width:0.5;"/><text fill="#000000" font-family="sans-serif" font-size="13" lengthAdjust="spacing" textLength="207" x="177" y="186.6777">&#49324;&#50857;&#51088;&#44032; &#50937; &#54168;&#51060;&#51648;&#50640;&#49436; &#47196;&#44536;&#51064; &#48260;&#53948; &#53364;&#47533;</text><polygon fill="#181818" points="378.5,216.7305,388.5,220.7305,378.5,224.7305,382.5,220.7305" style="stroke:#181818;stroke-width:1.0;"/><line style="stroke:#181818;stroke-width:1.0;" x1="166.5" x2="384.5" y1="220.7305" y2="220.7305"/><text fill="#000000" font-family="sans-serif" font-size="13" font-weight="bold" lengthAdjust="spacing" textLength="9" x="173.5" y="215.9883">2</text><text fill="#000000" font-family="sans-serif" font-size="13" lengthAdjust="spacing" textLength="114" x="186.5" y="215.9883">2. Sign-in request</text><path d="M395,233.7305 L395,273.7305 L559,273.7305 L559,243.7305 L549,233.7305 L395,233.7305 " fill="#FEFFDD" style="stroke:#181818;stroke-width:0.5;"/><path d="M549,233.7305 L549,243.7305 L559,243.7305 L549,233.7305 " fill="#FEFFDD" style="stroke:#181818;stroke-width:0.5;"/><text fill="#000000" font-family="sans-serif" font-size="13" lengthAdjust="spacing" textLength="122" x="401" y="251.2988">&#47196;&#44536;&#51064; &#50836;&#52397;&#51012; &#52376;&#47532;&#54616;&#44256;,</text><text fill="#000000" font-family="sans-serif" font-size="13" lengthAdjust="spacing" textLength="143" x="401" y="266.6094">SIOP &#50836;&#52397; &#51456;&#48708; &#45800;&#44228;&#47196; &#51652;&#51077;</text><polygon fill="#181818" points="635.5,311.9727,645.5,315.9727,635.5,319.9727,639.5,315.9727" style="stroke:#181818;stroke-width:1.0;"/><line style="stroke:#181818;stroke-width:1.0;" x1="390.5" x2="641.5" y1="315.9727" y2="315.9727"/><text fill="#000000" font-family="sans-serif" font-size="13" font-weight="bold" lengthAdjust="spacing" textLength="9" x="397.5" y="303.5752">3</text><text fill="#000000" font-family="sans-serif" font-size="13" lengthAdjust="spacing" textLength="220" x="410.5" y="295.9199">3. Create SIOP Request URI &amp; token</text><text fill="#000000" font-family="sans-serif" font-size="13" lengthAdjust="spacing" textLength="179" x="410.5" y="311.2305">(include `registration` field)</text><path d="M652,328.9727 L652,399.9727 L896,399.9727 L896,338.9727 L886,328.9727 L652,328.9727 " fill="#FEFFDD" style="stroke:#181818;stroke-width:0.5;"/><path d="M886,328.9727 L886,338.9727 L896,338.9727 L886,328.9727 " fill="#FEFFDD" style="stroke:#181818;stroke-width:0.5;"/><text fill="#000000" font-family="sans-serif" font-size="13" lengthAdjust="spacing" textLength="194" x="658" y="346.541">SIOP Request &#49373;&#49457; &#49884; &#45796;&#51020; &#54252;&#54632;:\n</text><text fill="#000000" font-family="sans-serif" font-size="13" lengthAdjust="spacing" textLength="189" x="658" y="361.8516">- client_id (RP callback URI)\n</text><text fill="#000000" font-family="sans-serif" font-size="13" lengthAdjust="spacing" textLength="223" x="658" y="377.1621">- registration (RP&#51032; &#53364;&#46972;&#51060;&#50616;&#53944; &#51221;&#48372;)\n</text><text fill="#000000" font-family="sans-serif" font-size="13" lengthAdjust="spacing" textLength="104" x="658" y="392.4727">- nonce, state &#46321;</text><polygon fill="#181818" points="401.5,422.5254,391.5,426.5254,401.5,430.5254,397.5,426.5254" style="stroke:#181818;stroke-width:1.0;"/><line style="stroke:#181818;stroke-width:1.0;" x1="395.5" x2="646.5" y1="426.5254" y2="426.5254"/><text fill="#000000" font-family="sans-serif" font-size="13" font-weight="bold" lengthAdjust="spacing" textLength="9" x="407.5" y="421.7832">4</text><text fill="#000000" font-family="sans-serif" font-size="13" lengthAdjust="spacing" textLength="152" x="420.5" y="421.7832">Return SIOP Request URI</text><polygon fill="#181818" points="732.5,451.8359,742.5,455.8359,732.5,459.8359,736.5,455.8359" style="stroke:#181818;stroke-width:1.0;"/><line style="stroke:#181818;stroke-width:1.0;" x1="390.5" x2="738.5" y1="455.8359" y2="455.8359"/><text fill="#000000" font-family="sans-serif" font-size="13" font-weight="bold" lengthAdjust="spacing" textLength="9" x="397.5" y="451.0938">5</text><text fill="#000000" font-family="sans-serif" font-size="13" lengthAdjust="spacing" textLength="240" x="410.5" y="451.0938">4. Store session ID, SIOP token, nonce</text><path d="M749,468.8359 L749,508.8359 L929,508.8359 L929,478.8359 L919,468.8359 L749,468.8359 " fill="#FEFFDD" style="stroke:#181818;stroke-width:0.5;"/><path d="M919,468.8359 L919,478.8359 L929,478.8359 L919,468.8359 " fill="#FEFFDD" style="stroke:#181818;stroke-width:0.5;"/><text fill="#000000" font-family="sans-serif" font-size="13" lengthAdjust="spacing" textLength="159" x="755" y="486.4043">&#45208;&#51473;&#50640; &#51025;&#45813;&#51012; &#44160;&#51613;&#54616;&#44592; &#50948;&#54620;\n</text><text fill="#000000" font-family="sans-serif" font-size="13" lengthAdjust="spacing" textLength="131" x="755" y="501.7148">nonce &#48143; &#49345;&#53468; &#51221;&#48372; &#51200;&#51109;</text><polygon fill="#181818" points="177.5,531.7676,167.5,535.7676,177.5,539.7676,173.5,535.7676" style="stroke:#181818;stroke-width:1.0;"/><line style="stroke:#181818;stroke-width:1.0;" x1="171.5" x2="389.5" y1="535.7676" y2="535.7676"/><text fill="#000000" font-family="sans-serif" font-size="13" font-weight="bold" lengthAdjust="spacing" textLength="9" x="183.5" y="531.0254">6</text><text fill="#000000" font-family="sans-serif" font-size="13" lengthAdjust="spacing" textLength="187" x="196.5" y="531.0254">5. Provide QR code (siop://...)</text><path d="M171,548.7676 L171,588.7676 L414,588.7676 L414,558.7676 L404,548.7676 L171,548.7676 " fill="#FEFFDD" style="stroke:#181818;stroke-width:0.5;"/><path d="M404,548.7676 L404,558.7676 L414,558.7676 L404,548.7676 " fill="#FEFFDD" style="stroke:#181818;stroke-width:0.5;"/><text fill="#000000" font-family="sans-serif" font-size="13" lengthAdjust="spacing" textLength="222" x="177" y="566.3359">&#49324;&#50857;&#51088;&#44032; &#47784;&#48148;&#51068; &#44592;&#44592;&#47196; &#49828;&#52884;&#54624; &#49688; &#51080;&#46020;&#47197;\n</text><text fill="#000000" font-family="sans-serif" font-size="13" lengthAdjust="spacing" textLength="203" x="177" y="581.6465">SIOP Request URI&#47484; QR &#53076;&#46300;&#47196; &#51228;&#44277;</text><rect fill="#EEEEEE" height="3" style="stroke:#EEEEEE;stroke-width:1.0;" width="1738" x="0" y="615.0439"/><line style="stroke:#000000;stroke-width:1.0;" x1="0" x2="1738" y1="615.0439" y2="615.0439"/><line style="stroke:#000000;stroke-width:1.0;" x1="0" x2="1738" y1="618.0439" y2="618.0439"/><rect fill="#EEEEEE" height="23.3105" style="stroke:#000000;stroke-width:2.0;" width="118" x="810" y="604.3887"/><text fill="#000000" font-family="sans-serif" font-size="13" font-weight="bold" lengthAdjust="spacing" textLength="100" x="816" y="620.957">&#49324;&#50857;&#51088; &#52769; &#51064;&#51613; &#50836;&#52397;</text><polygon fill="#181818" points="154.5,655.0098,164.5,659.0098,154.5,663.0098,158.5,659.0098" style="stroke:#181818;stroke-width:1.0;"/><line style="stroke:#181818;stroke-width:1.0;" x1="23.5" x2="160.5" y1="659.0098" y2="659.0098"/><text fill="#000000" font-family="sans-serif" font-size="13" font-weight="bold" lengthAdjust="spacing" textLength="9" x="30.5" y="654.2676">7</text><text fill="#000000" font-family="sans-serif" font-size="13" lengthAdjust="spacing" textLength="101" x="43.5" y="654.2676">6. Scan QR code</text><path d="M28,672.0098 L28,697.0098 L241,697.0098 L241,682.0098 L231,672.0098 L28,672.0098 " fill="#FEFFDD" style="stroke:#181818;stroke-width:0.5;"/><path d="M231,672.0098 L231,682.0098 L241,682.0098 L231,672.0098 " fill="#FEFFDD" style="stroke:#181818;stroke-width:0.5;"/><text fill="#000000" font-family="sans-serif" font-size="13" lengthAdjust="spacing" textLength="192" x="34" y="689.5781">&#49324;&#50857;&#51088;&#44032; &#47784;&#48148;&#51068; &#44592;&#44592;&#47196; QR &#53076;&#46300; &#49828;&#52884;</text><polygon fill="#181818" points="845.5,719.6309,855.5,723.6309,845.5,727.6309,849.5,723.6309" style="stroke:#181818;stroke-width:1.0;"/><line style="stroke:#181818;stroke-width:1.0;" x1="23.5" x2="851.5" y1="723.6309" y2="723.6309"/><text fill="#000000" font-family="sans-serif" font-size="13" font-weight="bold" lengthAdjust="spacing" textLength="9" x="30.5" y="718.8887">8</text><text fill="#000000" font-family="sans-serif" font-size="13" lengthAdjust="spacing" textLength="159" x="43.5" y="718.8887">7. POST SIOP Request URI</text><path d="M862,736.6309 L862,761.6309 L1080,761.6309 L1080,746.6309 L1070,736.6309 L862,736.6309 " fill="#FEFFDD" style="stroke:#181818;stroke-width:0.5;"/><path d="M1070,736.6309 L1070,746.6309 L1080,746.6309 L1070,736.6309 " fill="#FEFFDD" style="stroke:#181818;stroke-width:0.5;"/><text fill="#000000" font-family="sans-serif" font-size="13" lengthAdjust="spacing" textLength="197" x="868" y="754.1992">SIOP &#53364;&#46972;&#51060;&#50616;&#53944;&#44032; &#48177;&#50644;&#46300;&#50640; URI &#51204;&#45804;</text><polygon fill="#181818" points="401.5,784.252,391.5,788.252,401.5,792.252,397.5,788.252" style="stroke:#181818;stroke-width:1.0;"/><line style="stroke:#181818;stroke-width:1.0;" x1="395.5" x2="856.5" y1="788.252" y2="788.252"/><text fill="#000000" font-family="sans-serif" font-size="13" font-weight="bold" lengthAdjust="spacing" textLength="9" x="407.5" y="783.5098">9</text><text fill="#000000" font-family="sans-serif" font-size="13" lengthAdjust="spacing" textLength="166" x="420.5" y="783.5098">8. GET SIOP Request token</text><path d="M395,801.252 L395,826.252 L584,826.252 L584,811.252 L574,801.252 L395,801.252 " fill="#FEFFDD" style="stroke:#181818;stroke-width:0.5;"/><path d="M574,801.252 L574,811.252 L584,811.252 L574,801.252 " fill="#FEFFDD" style="stroke:#181818;stroke-width:0.5;"/><text fill="#000000" font-family="sans-serif" font-size="13" lengthAdjust="spacing" textLength="168" x="401" y="818.8203">&#50836;&#52397; URI&#47484; &#53685;&#54644; SIOP &#53664;&#53360; &#50836;&#52397;</text><polygon fill="#181818" points="732.5,848.873,742.5,852.873,732.5,856.873,736.5,852.873" style="stroke:#181818;stroke-width:1.0;"/><line style="stroke:#181818;stroke-width:1.0;" x1="390.5" x2="738.5" y1="852.873" y2="852.873"/><text fill="#000000" font-family="sans-serif" font-size="13" font-weight="bold" lengthAdjust="spacing" textLength="18" x="397.5" y="848.1309">10</text><text fill="#000000" font-family="sans-serif" font-size="13" lengthAdjust="spacing" textLength="138" x="419.5" y="848.1309">9. Retrieve SIOP token</text><path d="M749,865.873 L749,890.873 L907,890.873 L907,875.873 L897,865.873 L749,865.873 " fill="#FEFFDD" style="stroke:#181818;stroke-width:0.5;"/><path d="M897,865.873 L897,875.873 L907,875.873 L897,865.873 " fill="#FEFFDD" style="stroke:#181818;stroke-width:0.5;"/><text fill="#000000" font-family="sans-serif" font-size="13" lengthAdjust="spacing" textLength="137" x="755" y="883.4414">&#48120;&#47532; &#51200;&#51109;&#46108; &#50836;&#52397; &#53664;&#53360; &#48152;&#54872;</text><rect fill="#EEEEEE" height="3" style="stroke:#EEEEEE;stroke-width:1.0;" width="1738" x="0" y="916.8389"/><line style="stroke:#000000;stroke-width:1.0;" x1="0" x2="1738" y1="916.8389" y2="916.8389"/><line style="stroke:#000000;stroke-width:1.0;" x1="0" x2="1738" y1="919.8389" y2="919.8389"/><rect fill="#EEEEEE" height="23.3105" style="stroke:#000000;stroke-width:2.0;" width="169" x="784.5" y="906.1836"/><text fill="#000000" font-family="sans-serif" font-size="13" font-weight="bold" lengthAdjust="spacing" textLength="151" x="790.5" y="922.752">RP Metadata &#51312;&#54924; &#48143; &#44160;&#51613;</text><polygon fill="#181818" points="1091.5,956.8047,1101.5,960.8047,1091.5,964.8047,1095.5,960.8047" style="stroke:#181818;stroke-width:1.0;"/><line style="stroke:#181818;stroke-width:1.0;" x1="857.5" x2="1097.5" y1="960.8047" y2="960.8047"/><text fill="#000000" font-family="sans-serif" font-size="13" font-weight="bold" lengthAdjust="spacing" textLength="18" x="864.5" y="956.0625">11</text><text fill="#000000" font-family="sans-serif" font-size="13" lengthAdjust="spacing" textLength="200" x="886.5" y="956.0625">10. Validate SIOP Request token</text><path d="M1108,973.8047 L1108,1028.8047 L1293,1028.8047 L1293,983.8047 L1283,973.8047 L1108,973.8047 " fill="#FEFFDD" style="stroke:#181818;stroke-width:0.5;"/><path d="M1283,973.8047 L1283,983.8047 L1293,983.8047 L1283,973.8047 " fill="#FEFFDD" style="stroke:#181818;stroke-width:0.5;"/><text fill="#000000" font-family="sans-serif" font-size="13" lengthAdjust="spacing" textLength="164" x="1114" y="991.373">SIOP Request &#50976;&#54952;&#49457; &#44160;&#51613;:\n</text><text fill="#000000" font-family="sans-serif" font-size="13" lengthAdjust="spacing" textLength="159" x="1114" y="1006.6836">- client_id &#49888;&#47280; &#50668;&#48512; &#54869;&#51064;\n</text><text fill="#000000" font-family="sans-serif" font-size="13" lengthAdjust="spacing" textLength="136" x="1114" y="1021.9941">- scope, nonce &#54869;&#51064; &#46321;</text><polygon fill="#181818" points="1403.5,1052.0469,1413.5,1056.0469,1403.5,1060.0469,1407.5,1056.0469" style="stroke:#181818;stroke-width:1.0;"/><line style="stroke:#181818;stroke-width:1.0;" x1="1103.5" x2="1409.5" y1="1056.0469" y2="1056.0469"/><text fill="#000000" font-family="sans-serif" font-size="13" font-weight="bold" lengthAdjust="spacing" textLength="18" x="1110.5" y="1051.3047">12</text><text fill="#000000" font-family="sans-serif" font-size="13" lengthAdjust="spacing" textLength="266" x="1132.5" y="1051.3047">10a. Fetch RP Metadata (using `client_id`)</text><path d="M1420,1069.0469 L1420,1124.0469 L1733,1124.0469 L1733,1079.0469 L1723,1069.0469 L1420,1069.0469 " fill="#FEFFDD" style="stroke:#181818;stroke-width:0.5;"/><path d="M1723,1069.0469 L1723,1079.0469 L1733,1079.0469 L1723,1069.0469 " fill="#FEFFDD" style="stroke:#181818;stroke-width:0.5;"/><text fill="#000000" font-family="sans-serif" font-size="13" lengthAdjust="spacing" textLength="149" x="1426" y="1086.6152">client_id&#44032; URL&#51064; &#44221;&#50864;:\n</text><text fill="#000000" font-family="sans-serif" font-size="13" lengthAdjust="spacing" textLength="249" x="1426" y="1101.9258">/.well-known/openid-federation &#46608;&#45716;\n</text><text fill="#000000" font-family="sans-serif" font-size="13" lengthAdjust="spacing" textLength="292" x="1426" y="1117.2363">/.well-known/openid-configuration &#46321;&#51004;&#47196; &#51312;&#54924;</text><polygon fill="#181818" points="1403.5,1147.2891,1413.5,1151.2891,1403.5,1155.2891,1407.5,1151.2891" style="stroke:#181818;stroke-width:1.0;"/><line style="stroke:#181818;stroke-width:1.0;" x1="647.5" x2="1409.5" y1="1151.2891" y2="1151.2891"/><text fill="#000000" font-family="sans-serif" font-size="13" font-weight="bold" lengthAdjust="spacing" textLength="18" x="654.5" y="1146.5469">13</text><text fill="#000000" font-family="sans-serif" font-size="13" lengthAdjust="spacing" textLength="294" x="676.5" y="1146.5469">10b. Optionally resolve `registration` override</text><path d="M1420,1164.2891 L1420,1204.2891 L1635,1204.2891 L1635,1174.2891 L1625,1164.2891 L1420,1164.2891 " fill="#FEFFDD" style="stroke:#181818;stroke-width:0.5;"/><path d="M1625,1164.2891 L1625,1174.2891 L1635,1174.2891 L1625,1164.2891 " fill="#FEFFDD" style="stroke:#181818;stroke-width:0.5;"/><text fill="#000000" font-family="sans-serif" font-size="13" lengthAdjust="spacing" textLength="192" x="1426" y="1181.8574">registration &#54596;&#46300; &#50864;&#49440; &#49324;&#50857;&#54616;&#46104;,\n</text><text fill="#000000" font-family="sans-serif" font-size="13" lengthAdjust="spacing" textLength="194" x="1426" y="1197.168">&#54596;&#50836; &#49884; Metadata&#47196; &#48372;&#50756;&#54616;&#44144;&#45208; &#45824;&#52404;</text><line style="stroke:#181818;stroke-width:1.0;" x1="1103.5" x2="1145.5" y1="1231.2207" y2="1231.2207"/><line style="stroke:#181818;stroke-width:1.0;" x1="1145.5" x2="1145.5" y1="1231.2207" y2="1244.2207"/><line style="stroke:#181818;stroke-width:1.0;" x1="1104.5" x2="1145.5" y1="1244.2207" y2="1244.2207"/><polygon fill="#181818" points="1114.5,1240.2207,1104.5,1244.2207,1114.5,1248.2207,1110.5,1244.2207" style="stroke:#181818;stroke-width:1.0;"/><text fill="#000000" font-family="sans-serif" font-size="13" font-weight="bold" lengthAdjust="spacing" textLength="18" x="1110.5" y="1226.4785">14</text><text fill="#000000" font-family="sans-serif" font-size="13" lengthAdjust="spacing" textLength="200" x="1132.5" y="1226.4785">11. Create SIOP Response token</text><path d="M1108,1257.2207 L1108,1312.2207 L1323,1312.2207 L1323,1267.2207 L1313,1257.2207 L1108,1257.2207 " fill="#FEFFDD" style="stroke:#181818;stroke-width:0.5;"/><path d="M1313,1257.2207 L1313,1267.2207 L1323,1267.2207 L1313,1257.2207 " fill="#FEFFDD" style="stroke:#181818;stroke-width:0.5;"/><text fill="#000000" font-family="sans-serif" font-size="13" lengthAdjust="spacing" textLength="165" x="1114" y="1274.7891">ID Token &#54805;&#53468;&#51032; &#51025;&#45813; &#49373;&#49457;:\n</text><text fill="#000000" font-family="sans-serif" font-size="13" lengthAdjust="spacing" textLength="194" x="1114" y="1290.0996">- sub, iss, aud, nonce &#46321; &#54252;&#54632;\n</text><text fill="#000000" font-family="sans-serif" font-size="13" lengthAdjust="spacing" textLength="129" x="1114" y="1305.4102">- &#49436;&#47749; &#54252;&#54632; (&#50696;: ES256)</text><polygon fill="#181818" points="868.5,1335.4629,858.5,1339.4629,868.5,1343.4629,864.5,1339.4629" style="stroke:#181818;stroke-width:1.0;"/><line style="stroke:#181818;stroke-width:1.0;" x1="862.5" x2="1102.5" y1="1339.4629" y2="1339.4629"/><text fill="#000000" font-family="sans-serif" font-size="13" font-weight="bold" lengthAdjust="spacing" textLength="18" x="874.5" y="1334.7207">15</text><text fill="#000000" font-family="sans-serif" font-size="13" lengthAdjust="spacing" textLength="142" x="896.5" y="1334.7207">Return response token</text><polygon fill="#181818" points="401.5,1364.7734,391.5,1368.7734,401.5,1372.7734,397.5,1368.7734" style="stroke:#181818;stroke-width:1.0;"/><line style="stroke:#181818;stroke-width:1.0;" x1="395.5" x2="856.5" y1="1368.7734" y2="1368.7734"/><text fill="#000000" font-family="sans-serif" font-size="13" font-weight="bold" lengthAdjust="spacing" textLength="18" x="407.5" y="1364.0313">16</text><text fill="#000000" font-family="sans-serif" font-size="13" lengthAdjust="spacing" textLength="292" x="429.5" y="1364.0313">12. POST SIOP Response token to client_id URI</text><path d="M395,1381.7734 L395,1406.7734 L579,1406.7734 L579,1391.7734 L569,1381.7734 L395,1381.7734 " fill="#FEFFDD" style="stroke:#181818;stroke-width:0.5;"/><path d="M569,1381.7734 L569,1391.7734 L579,1391.7734 L569,1381.7734 " fill="#FEFFDD" style="stroke:#181818;stroke-width:0.5;"/><text fill="#000000" font-family="sans-serif" font-size="13" lengthAdjust="spacing" textLength="163" x="401" y="1399.3418">RP&#44032; &#51025;&#45813;&#51012; &#49688;&#49888;&#54616;&#50668; &#44160;&#51613; &#51456;&#48708;</text><rect fill="#EEEEEE" height="3" style="stroke:#EEEEEE;stroke-width:1.0;" width="1738" x="0" y="1432.7393"/><line style="stroke:#000000;stroke-width:1.0;" x1="0" x2="1738" y1="1432.7393" y2="1432.7393"/><line style="stroke:#000000;stroke-width:1.0;" x1="0" x2="1738" y1="1435.7393" y2="1435.7393"/><rect fill="#EEEEEE" height="23.3105" style="stroke:#000000;stroke-width:2.0;" width="143" x="797.5" y="1422.084"/><text fill="#000000" font-family="sans-serif" font-size="13" font-weight="bold" lengthAdjust="spacing" textLength="125" x="803.5" y="1438.6523">RP &#52769; &#51025;&#45813; &#44160;&#51613; &#48143; &#50756;&#47308;</text><polygon fill="#181818" points="732.5,1472.7051,742.5,1476.7051,732.5,1480.7051,736.5,1476.7051" style="stroke:#181818;stroke-width:1.0;"/><line style="stroke:#181818;stroke-width:1.0;" x1="390.5" x2="738.5" y1="1476.7051" y2="1476.7051"/><text fill="#000000" font-family="sans-serif" font-size="13" font-weight="bold" lengthAdjust="spacing" textLength="18" x="397.5" y="1471.9629">17</text><text fill="#000000" font-family="sans-serif" font-size="13" lengthAdjust="spacing" textLength="116" x="419.5" y="1471.9629">13. Retrieve nonce</text><path d="M749,1489.7051 L749,1529.7051 L934,1529.7051 L934,1499.7051 L924,1489.7051 L749,1489.7051 " fill="#FEFFDD" style="stroke:#181818;stroke-width:0.5;"/><path d="M924,1489.7051 L924,1499.7051 L934,1499.7051 L924,1489.7051 " fill="#FEFFDD" style="stroke:#181818;stroke-width:0.5;"/><text fill="#000000" font-family="sans-serif" font-size="13" lengthAdjust="spacing" textLength="164" x="755" y="1507.2734">&#51060;&#51204;&#50640; &#51200;&#51109;&#54620; nonce &#48520;&#47084;&#50740;\n</text><text fill="#000000" font-family="sans-serif" font-size="13" lengthAdjust="spacing" textLength="152" x="755" y="1522.584">- &#51116;&#49324;&#50857;/&#50948;&#51312; &#50668;&#48512; &#54869;&#51064; &#47785;&#51201;</text><polygon fill="#181818" points="635.5,1552.6367,645.5,1556.6367,635.5,1560.6367,639.5,1556.6367" style="stroke:#181818;stroke-width:1.0;"/><line style="stroke:#181818;stroke-width:1.0;" x1="390.5" x2="641.5" y1="1556.6367" y2="1556.6367"/><text fill="#000000" font-family="sans-serif" font-size="13" font-weight="bold" lengthAdjust="spacing" textLength="18" x="397.5" y="1551.8945">18</text><text fill="#000000" font-family="sans-serif" font-size="13" lengthAdjust="spacing" textLength="210" x="419.5" y="1551.8945">14. Validate SIOP Response token</text><path d="M652,1569.6367 L652,1624.6367 L915,1624.6367 L915,1579.6367 L905,1569.6367 L652,1569.6367 " fill="#FEFFDD" style="stroke:#181818;stroke-width:0.5;"/><path d="M905,1569.6367 L905,1579.6367 L915,1579.6367 L905,1569.6367 " fill="#FEFFDD" style="stroke:#181818;stroke-width:0.5;"/><text fill="#000000" font-family="sans-serif" font-size="13" lengthAdjust="spacing" textLength="101" x="658" y="1587.2051">- &#51025;&#45813; &#49436;&#47749; &#44160;&#51613;\n</text><text fill="#000000" font-family="sans-serif" font-size="13" lengthAdjust="spacing" textLength="163" x="658" y="1602.5156">- nonce, aud, iss &#46321; &#54869;&#51064;\n</text><text fill="#000000" font-family="sans-serif" font-size="13" lengthAdjust="spacing" textLength="242" x="658" y="1617.8262">- subject binding &#48143; presentation (&#49440;&#53469;)</text><polygon fill="#181818" points="177.5,1647.8789,167.5,1651.8789,177.5,1655.8789,173.5,1651.8789" style="stroke:#181818;stroke-width:1.0;"/><line style="stroke:#181818;stroke-width:1.0;" x1="171.5" x2="389.5" y1="1651.8789" y2="1651.8789"/><text fill="#000000" font-family="sans-serif" font-size="13" font-weight="bold" lengthAdjust="spacing" textLength="18" x="183.5" y="1647.1367">19</text><text fill="#000000" font-family="sans-serif" font-size="13" lengthAdjust="spacing" textLength="132" x="205.5" y="1647.1367">15. Sign-in response</text><path d="M171,1664.8789 L171,1704.8789 L396,1704.8789 L396,1674.8789 L386,1664.8789 L171,1664.8789 " fill="#FEFFDD" style="stroke:#181818;stroke-width:0.5;"/><path d="M386,1664.8789 L386,1674.8789 L396,1674.8789 L386,1664.8789 " fill="#FEFFDD" style="stroke:#181818;stroke-width:0.5;"/><text fill="#000000" font-family="sans-serif" font-size="13" lengthAdjust="spacing" textLength="204" x="177" y="1682.4473">&#49324;&#50857;&#51088; &#51064;&#51613; &#50756;&#47308; &#54980; &#47196;&#44536;&#51064; &#49464;&#49496; &#48156;&#44553;\n</text><text fill="#000000" font-family="sans-serif" font-size="13" lengthAdjust="spacing" textLength="148" x="177" y="1697.7578">&#46608;&#45716; &#53664;&#53360; &#51200;&#51109; &#48143; &#47532;&#45796;&#51060;&#47113;&#49496;</text><!--SRC=[ZLPjJzjM5FwUNt7K3nD8YHdqPHiIayPW4zAgij1kNoeDnxvGhvcTsGxLleNYLXJGIbKo38rPs2Yb5TK2f5qwqJ-KU_qVTkxr2tPCMgGeYUrpVPvppdEUS-IgRUZLNqh4pCcARPXmoyA_5TcqDKMhoBeDbsPi6I_WHrAw1B85mILUfQsAqp0kAtU9hi8CCHU8AOoBqy55ndPcwiOqN3VKQfb4XdWdOpOn7ZwT64y_up3FSyZld-TIsFSw5SRdkRrER5cLRHacTRLYQBeTek3tSxcnCVmBhBCBhBtSxRI07Rjq_n36nd8vuQVmvLcMO1I69VXAKOZ5tm2MPfESRjW4J6t-ZWt6N2AZ0Ep-8Tj-oNRMkwqQi6VlmF_TPLwRlQYnpNNcD83kDhh_TfZN0Nhi-2kdu2-swVxh7Cy3VsqkT-OQSKG5G1WZ4ineytf1qy4alrQ9PVVWY8i52IziUuCTlsQU4qRfrztkIJEFDYARmMDWUpNwpW6wUj0zSV0mi1SEstcGG1K32K3niwDmMOAlJI8Z276Z6C22MyKf-0Hi0ujxMn_GTALSLGdCccHUismJepFqMPZJI5aTp8R0wmdfzx4bZpb7m5OnVQjxp5i3_p46SZ1wMqVJ0YXbZUZsJveA0rWXHIwNIyWi3cCmj4YwvaRCSqNYlLDUd3yw_Wfcgbcd9-teX6xe2ic3PVFewDEZT2eukdHrYiIkcdec3prvcnX7qojOI6nL0XPoYWEQciW71qNAye7lJ6QmXR2mzrsszmIv1CnxGbVVyC9sZsjit-E5vLnkE7wz8O8Ghm7QUem9NFIN6c64-5DZEy_xr3P9_AiIJ9l6WeR5-xu8Ye6_0mYuCZeq94dIu4NRWBuweAqDvfq20iIFuDVA7ljlmwytWIsxm7QMwMFadITmz-QGFZ_b_jdx3Vgq8Gut6zsJDua0iADZZq5ZUnrCISJkVerz3GkXo7eKN4yyGaal44eCBGmgWIjoUgPgwFKppEgDcPjPgcJTn_qiR7i8A_2qZjWczyqPmTkEDHswUjW38TMv4OpF9VXsiWU5u5z_LGdJ6PR4V_Z6hxT3Q0-R_c8hDEYh6eBzNqYyLqoDB904wVkm_PyE5-Q0i7Iz4I48tT6Mws-vQHuarP_jjlpjDT41GO_4J3X35SqGhlEVIl23NDRKZA2T1p4UFhrYrMZwsmTShmAVMP5Ygqtw5oPhyv2-hO6_LKUsXaQMObH8A03XanxnYV6AZF9G1N9PWc-8hTn9nJzGjJHz7cPZrxDPlHKZ4SxGSLRTAdx77NUFtxFjLe1_IBf7okN2NTsufmyXHbrJ2tD49Q6aKdUThcpqjLGCVKwRhqR6JuzOurGqiYXG7scDOoj9SAF2JwAm_uPIRXdbXSmuCR2UfgQIVW6c9e1VTqI_RhUOqmmx7FMJhhjv4GC-HwQ9WHCbayD5yMHR3XVQenOACT2r6ZjkzobEabZ3lNFIgXYwHJx6gwa9kCajm7VhgDzyQ0Mg7qx4Y5fMjPG7pRBo85VLY3sOvN1CXbQuVT1N3y9xCC3SvL6Od1cvUctmGn7qp3Sp3RslkWoFf5KkUGg_4zsGLRw4uXIdnHuLZpeS5jWzM05idgYdWzqbemB1613P2Wt59DnowDzhGWVEqQRXombn-i0KvXhSTCGK5jA44pVA-jjb-kSXSzjHqdSE0teDuM16kgUx7kV9IzPS_DYQDNmbAqmVO52yH1LYkWIb3_AGNd04Ov0x0LzIMbGj_KmK6qgQhd8PuUchOFsnRk4UXStZBtc35zWaXgycbzS0-qNMXtYG1sNpdpd9rTRfi0VOXQr6j_D8W0vaA9v6eZO2DquHiJcsQVCHdZb3_3y0]--></g></svg>