<?xml version="1.0" encoding="us-ascii" standalone="no"?><svg xmlns="http://www.w3.org/2000/svg" xmlns:xlink="http://www.w3.org/1999/xlink" contentStyleType="text/css" height="525px" preserveAspectRatio="none" style="width:783px;height:525px;background:#FFFFFF;" version="1.1" viewBox="0 0 783 525" width="783px" zoomAndPan="magnify"><defs/><g><text fill="#000000" font-family="sans-serif" font-size="14" font-weight="bold" lengthAdjust="spacing" textLength="246" x="267.75" y="28.5352">OID4VCI Authorization Code Flow</text><line style="stroke:#181818;stroke-width:0.5;stroke-dasharray:5.0,5.0;" x1="79" x2="79" y1="118.9766" y2="444.082"/><line style="stroke:#181818;stroke-width:0.5;stroke-dasharray:5.0,5.0;" x1="152" x2="152" y1="118.9766" y2="444.082"/><line style="stroke:#181818;stroke-width:0.5;stroke-dasharray:5.0,5.0;" x1="559.5" x2="559.5" y1="118.9766" y2="444.082"/><line style="stroke:#181818;stroke-width:0.5;stroke-dasharray:5.0,5.0;" x1="712.5" x2="712.5" y1="118.9766" y2="444.082"/><text fill="#000000" font-family="sans-serif" font-size="14" lengthAdjust="spacing" textLength="65" x="44" y="116.0234">End-User</text><ellipse cx="79.5" cy="50.9883" fill="#E2E2F0" rx="8" ry="8" style="stroke:#181818;stroke-width:0.5;"/><path d="M79.5,58.9883 L79.5,85.9883 M66.5,66.9883 L92.5,66.9883 M79.5,85.9883 L66.5,100.9883 M79.5,85.9883 L92.5,100.9883 " fill="none" style="stroke:#181818;stroke-width:0.5;"/><text fill="#000000" font-family="sans-serif" font-size="14" lengthAdjust="spacing" textLength="65" x="44" y="456.6172">End-User</text><ellipse cx="79.5" cy="468.0703" fill="#E2E2F0" rx="8" ry="8" style="stroke:#181818;stroke-width:0.5;"/><path d="M79.5,476.0703 L79.5,503.0703 M66.5,484.0703 L92.5,484.0703 M79.5,503.0703 L66.5,518.0703 M79.5,503.0703 L92.5,518.0703 " fill="none" style="stroke:#181818;stroke-width:0.5;"/><rect fill="#E2E2F0" height="30.4883" rx="2.5" ry="2.5" style="stroke:#181818;stroke-width:0.5;" width="55" x="125" y="87.4883"/><text fill="#000000" font-family="sans-serif" font-size="14" lengthAdjust="spacing" textLength="41" x="132" y="108.0234">Wallet</text><rect fill="#E2E2F0" height="30.4883" rx="2.5" ry="2.5" style="stroke:#181818;stroke-width:0.5;" width="55" x="125" y="443.082"/><text fill="#000000" font-family="sans-serif" font-size="14" lengthAdjust="spacing" textLength="41" x="132" y="463.6172">Wallet</text><rect fill="#E2E2F0" height="30.4883" rx="2.5" ry="2.5" style="stroke:#181818;stroke-width:0.5;" width="156" x="481.5" y="87.4883"/><text fill="#000000" font-family="sans-serif" font-size="14" lengthAdjust="spacing" textLength="142" x="488.5" y="108.0234">Authorization Server</text><rect fill="#E2E2F0" height="30.4883" rx="2.5" ry="2.5" style="stroke:#181818;stroke-width:0.5;" width="156" x="481.5" y="443.082"/><text fill="#000000" font-family="sans-serif" font-size="14" lengthAdjust="spacing" textLength="142" x="488.5" y="463.6172">Authorization Server</text><rect fill="#E2E2F0" height="30.4883" rx="2.5" ry="2.5" style="stroke:#181818;stroke-width:0.5;" width="130" x="647.5" y="87.4883"/><text fill="#000000" font-family="sans-serif" font-size="14" lengthAdjust="spacing" textLength="116" x="654.5" y="108.0234">Credential Issuer</text><rect fill="#E2E2F0" height="30.4883" rx="2.5" ry="2.5" style="stroke:#181818;stroke-width:0.5;" width="130" x="647.5" y="443.082"/><text fill="#000000" font-family="sans-serif" font-size="14" lengthAdjust="spacing" textLength="116" x="654.5" y="463.6172">Credential Issuer</text><path d="M5,133.9766 L5,158.9766 L228,158.9766 L228,143.9766 L218,133.9766 L5,133.9766 " fill="#FEFFDD" style="stroke:#181818;stroke-width:0.5;"/><path d="M218,133.9766 L218,143.9766 L228,143.9766 L218,133.9766 " fill="#FEFFDD" style="stroke:#181818;stroke-width:0.5;"/><text fill="#000000" font-family="sans-serif" font-size="13" lengthAdjust="spacing" textLength="202" x="11" y="151.5449">(1a) End-User selects Credential</text><polygon fill="#181818" points="163.5,181.5977,153.5,185.5977,163.5,189.5977,159.5,185.5977" style="stroke:#181818;stroke-width:1.0;"/><line style="stroke:#181818;stroke-width:1.0;" x1="157.5" x2="711.5" y1="185.5977" y2="185.5977"/><text fill="#000000" font-family="sans-serif" font-size="13" lengthAdjust="spacing" textLength="229" x="169.5" y="180.8555">(1b) Credential Offer(credential type)</text><polygon fill="#181818" points="700.5,210.9082,710.5,214.9082,700.5,218.9082,704.5,214.9082" style="stroke:#181818;stroke-width:1.0;"/><line style="stroke:#181818;stroke-width:1.0;" x1="152.5" x2="706.5" y1="214.9082" y2="214.9082"/><text fill="#000000" font-family="sans-serif" font-size="13" lengthAdjust="spacing" textLength="293" x="159.5" y="210.166">(2) Obtains Issuer's Credential Issuer metadata</text><polygon fill="#181818" points="547.5,240.2188,557.5,244.2188,547.5,248.2188,551.5,244.2188" style="stroke:#181818;stroke-width:1.0;"/><line style="stroke:#181818;stroke-width:1.0;" x1="152.5" x2="553.5" y1="244.2188" y2="244.2188"/><text fill="#000000" font-family="sans-serif" font-size="13" lengthAdjust="spacing" textLength="383" x="159.5" y="239.4766">(3) Authorization Request(type(s) of Credentials to be issued)</text><path d="M102,257.2188 L102,282.2188 L609,282.2188 L609,267.2188 L599,257.2188 L102,257.2188 " fill="#FEFFDD" style="stroke:#181818;stroke-width:0.5;"/><path d="M599,257.2188 L599,267.2188 L609,267.2188 L599,257.2188 " fill="#FEFFDD" style="stroke:#181818;stroke-width:0.5;"/><text fill="#000000" font-family="sans-serif" font-size="13" lengthAdjust="spacing" textLength="223" x="239.75" y="274.7871">End-User Authentication / Consent</text><polygon fill="#181818" points="163.5,304.8398,153.5,308.8398,163.5,312.8398,159.5,308.8398" style="stroke:#181818;stroke-width:1.0;"/><line style="stroke:#181818;stroke-width:1.0;" x1="157.5" x2="558.5" y1="308.8398" y2="308.8398"/><text fill="#000000" font-family="sans-serif" font-size="13" lengthAdjust="spacing" textLength="212" x="169.5" y="304.0977">(4) Authorization Response (code)</text><polygon fill="#181818" points="547.5,334.1504,557.5,338.1504,547.5,342.1504,551.5,338.1504" style="stroke:#181818;stroke-width:1.0;"/><line style="stroke:#181818;stroke-width:1.0;" x1="152.5" x2="553.5" y1="338.1504" y2="338.1504"/><text fill="#000000" font-family="sans-serif" font-size="13" lengthAdjust="spacing" textLength="155" x="159.5" y="333.4082">(5) Token Request (code)</text><polygon fill="#181818" points="163.5,363.4609,153.5,367.4609,163.5,371.4609,159.5,367.4609" style="stroke:#181818;stroke-width:1.0;"/><line style="stroke:#181818;stroke-width:1.0;" x1="157.5" x2="558.5" y1="367.4609" y2="367.4609"/><text fill="#000000" font-family="sans-serif" font-size="13" lengthAdjust="spacing" textLength="202" x="169.5" y="362.7188">Token Response (Access Token)</text><polygon fill="#181818" points="700.5,392.7715,710.5,396.7715,700.5,400.7715,704.5,396.7715" style="stroke:#181818;stroke-width:1.0;"/><line style="stroke:#181818;stroke-width:1.0;" x1="152.5" x2="706.5" y1="396.7715" y2="396.7715"/><text fill="#000000" font-family="sans-serif" font-size="13" lengthAdjust="spacing" textLength="290" x="159.5" y="392.0293">(6) Credential Request(Access Token, proof(s))</text><polygon fill="#181818" points="163.5,422.082,153.5,426.082,163.5,430.082,159.5,426.082" style="stroke:#181818;stroke-width:1.0;"/><line style="stroke:#181818;stroke-width:1.0;" x1="157.5" x2="711.5" y1="426.082" y2="426.082"/><text fill="#000000" font-family="sans-serif" font-size="13" lengthAdjust="spacing" textLength="360" x="169.5" y="421.3398">Credential Response with Credential(s) OR Transaction ID</text><!--SRC=[ZPDDJyCm38Rl-HNMBZJI9WGC3XoGfWsadYgD0USiTRM8afJOOu9VJwAjNTiLiQkTztdz5JPS8cJfOlewJs6svOtpvaUnSHRcBaTuAjrE2ANPUHWzsdpoGkX7ebAUZJQLiWoZDrMMoBrWb_MC_kj4D_UOesMZIaY9jZ4lh6C45zwstCQD1Tn3SgKar2aWB54pmH4bn00N9WyD8oBMigM0h2ZG9_eOuEyAfMXCe_YK6JZN4h8rAsFf4BneLtA8mGUooXKhqIKE3YX0RsHl3qlyt29n4gjAI88hMYO4x62DOA9NBZi3FBYD__HgnXZpaQVt3ox3xYs5G2XvKDgRv_IqPAeY0H8TZaYUsVcjX9LxnwRZMdrE3RMmzfrfZKJxSDz_S9TtdPEePzx6ZA7opXLX1VB_6-km3aNj36zQYRZBR0ahhoo53nPRInVY5m00]--></g></svg>
